<svg xmlns="http://www.w3.org/2000/svg" width="40.262" height="46.013" viewBox="0 0 40.262 46.013">
    <path data-name="Icon awesome-building" d="M39.183 43.137h-1.8V2.157A2.157 2.157 0 0 0 35.229 0H5.033a2.157 2.157 0 0 0-2.157 2.157v40.98h-1.8A1.078 1.078 0 0 0 0 44.216v1.8h40.262v-1.8a1.078 1.078 0 0 0-1.079-1.079zM11.5 6.83a1.078 1.078 0 0 1 1.078-1.078h3.595a1.078 1.078 0 0 1 1.082 1.078v3.595a1.078 1.078 0 0 1-1.078 1.075h-3.595a1.078 1.078 0 0 1-1.082-1.075zm0 8.627a1.078 1.078 0 0 1 1.078-1.078h3.595a1.078 1.078 0 0 1 1.078 1.078v3.595a1.078 1.078 0 0 1-1.078 1.078h-3.591a1.078 1.078 0 0 1-1.082-1.078zm4.673 13.3h-3.591A1.078 1.078 0 0 1 11.5 27.68v-3.595a1.078 1.078 0 0 1 1.078-1.078h3.595a1.078 1.078 0 0 1 1.078 1.078v3.595a1.078 1.078 0 0 1-1.074 1.078zm6.83 14.379h-5.748v-7.548a1.078 1.078 0 0 1 1.078-1.078h3.595a1.078 1.078 0 0 1 1.078 1.078zm5.755-15.456a1.078 1.078 0 0 1-1.078 1.078h-3.595a1.078 1.078 0 0 1-1.078-1.078v-3.595a1.078 1.078 0 0 1 1.078-1.078h3.595a1.078 1.078 0 0 1 1.078 1.078zm0-8.627a1.078 1.078 0 0 1-1.078 1.078h-3.595a1.078 1.078 0 0 1-1.078-1.078v-3.595a1.078 1.078 0 0 1 1.078-1.078h3.595a1.078 1.078 0 0 1 1.078 1.078zm0-8.627A1.078 1.078 0 0 1 27.68 11.5h-3.595a1.078 1.078 0 0 1-1.078-1.078V6.83a1.078 1.078 0 0 1 1.078-1.078h3.595a1.078 1.078 0 0 1 1.078 1.078z" style="fill:#c8102e"/>
</svg>
