<svg xmlns="http://www.w3.org/2000/svg" width="46.025" height="46.028" viewBox="0 0 46.025 46.028">
    <path d="M38.635 280.715A3.367 3.367 0 0 0 36.214 285l5.815 16.066a2.3 2.3 0 0 1 1.462-.529 33.804 33.804 0 0 1 2.653.037l-3.264-17.363a3.331 3.331 0 0 0-3.549-2.61 3.539 3.539 0 0 0-.696.114zm1.017 2.953a.767.767 0 1 1-.767.767.767.767 0 0 1 .768-.767zM21.71 289.1a7.158 7.158 0 0 0-3.662 4.283l-.637 1.789h9.253a3.372 3.372 0 0 1 1.69-1.931l7.5-4.731-1.08-2.984a4.554 4.554 0 0 1-.271-1.662zm-5.065 7.607a2.409 2.409 0 0 0-2.294 2.214l.017-.1-1.393 5.554H2.833a2.315 2.315 0 0 0-2.3 2.3v5.374a2.313 2.313 0 0 0 2.3 2.3h26.083a2.3 2.3 0 0 0 2.3-2.316v-5.356a.77.77 0 0 0-.057-.283l-3.068-7.672a4.493 4.493 0 0 0-.692-1.269 2.064 2.064 0 0 0-1.551-.748zm1.525 3.07h2.308v6.138H16.95a.767.767 0 0 1-.742-.969l1.229-4.6a.767.767 0 0 1 .733-.571zm3.843 0h2.463a.767.767 0 0 1 .707.469l2.905 6.9a.766.766 0 0 1 .063.3v3.07a.767.767 0 0 1-.764.764h-4.6a.767.767 0 0 1-.64-.34l-.13-.2zm21.479 2.3a.767.767 0 0 0-.617.312l-6.9 9.2a.767.767 0 0 0 .611 1.229h4.6a5.371 5.371 0 0 0 5.367-5.368v-4.6a.767.767 0 0 0-.764-.77zm-39.136 5.36a.767.767 0 0 1 .776.776v2.306a.767.767 0 1 1-1.534 0v-2.306a.767.767 0 0 1 .758-.776zm3.07 0a.767.767 0 0 1 .776.776v2.306a.767.767 0 1 1-1.534 0v-2.306a.767.767 0 0 1 .758-.776zm3.064 0a.766.766 0 0 1 .781.776v2.306a.767.767 0 0 1-1.534 0v-2.306a.767.767 0 0 1 .753-.776zm-4.59 8.449a5.368 5.368 0 1 0 0 10.736h23.781a5.368 5.368 0 0 0 0-10.736zm1.536 3.07a2.3 2.3 0 1 1-2.306 2.3 2.309 2.309 0 0 1 2.308-2.3zm6.9 0a2.3 2.3 0 1 1-2.306 2.3 2.309 2.309 0 0 1 2.31-2.3zm6.9 0a2.3 2.3 0 1 1-2.3 2.3 2.309 2.309 0 0 1 2.307-2.3zm6.9 0a2.3 2.3 0 1 1-2.3 2.3 2.316 2.316 0 0 1 2.3-2.3z" transform="translate(-.528 -280.594)" style="fill:#c8102e"/>
</svg>
