<svg xmlns="http://www.w3.org/2000/svg" width="50.015" height="45.95" viewBox="0 0 50.015 45.95">
    <path d="M17.525 53.578q1.353 1.188 2.791 2.456l.02.017 3.186 2.749a2.274 2.274 0 0 0 2.973 0l3.186-2.752.02-.017c6.307-5.578 11.036-9.848 14.458-14.013 4-4.864 5.857-9.263 5.857-13.841a14.616 14.616 0 0 0-14.774-14.77 15.866 15.866 0 0 0-10.234 3.832 15.868 15.868 0 0 0-10.235-3.832A14.616 14.616 0 0 0 0 28.18c0 10.013 6.972 16.134 17.525 25.398zm-1.613-21.744h6.064v-6.063h6.064v6.064h6.06V37.9h-6.061v6.064h-6.064V37.9h-6.063v-6.066z" transform="translate(0 -13.407)" style="fill:#c8102e"/>
</svg>
