<svg xmlns="http://www.w3.org/2000/svg" width="46.716" height="46.716" viewBox="0 0 46.716 46.716">
    <path data-name="Path 1148" d="M72.789 421H38.92a2.92 2.92 0 0 0 0 5.84h33.869a2.92 2.92 0 0 0 0-5.84z" transform="translate(-36 -380.123)" style="fill:#c8102e"/>
    <path data-name="Path 1149" d="M92.453 221.987a5.06 5.06 0 0 1 .584.059v-11.195c-.2.085-.406.182-.615.256v.769a3.108 3.108 0 0 1-3.1 3.1h-3.08a3.108 3.108 0 0 1-3.1-3.1v-.769a13.467 13.467 0 0 1-1.312-.546l-.545.545a3.1 3.1 0 0 1-4.391 0l-2.169-2.179a3.1 3.1 0 0 1 0-4.39l.543-.544a13.614 13.614 0 0 1-.546-1.312h-.769a3.1 3.1 0 0 1-2.76-1.721H60.336A2.336 2.336 0 0 0 58 203.3v18.75a5.06 5.06 0 0 1 .584-.059z" transform="translate(-55.664 -183.446)" style="fill:#c8102e"/>
    <path data-name="Path 1150" d="M229.429 48.294h-2.085a.578.578 0 0 1-.56-.449 11.458 11.458 0 0 0-1.329-3.209.578.578 0 0 1 .079-.712l1.479-1.475a.767.767 0 0 0 0-1.086l-2.178-2.178a.767.767 0 0 0-1.086 0l-1.477 1.486a.578.578 0 0 1-.712.079 11.428 11.428 0 0 0-3.207-1.339.579.579 0 0 1-.448-.56v-2.082a.769.769 0 0 0-.765-.769h-3.079a.769.769 0 0 0-.769.769v2.078a.577.577 0 0 1-.448.558 11.448 11.448 0 0 0-3.212 1.336.575.575 0 0 1-.712-.08l-1.469-1.476a.767.767 0 0 0-1.086 0l-2.178 2.178a.767.767 0 0 0 0 1.086l1.473 1.473a.578.578 0 0 1 .079.712 11.493 11.493 0 0 0-1.328 3.212.577.577 0 0 1-.558.448h-2.081a.769.769 0 0 0-.769.766v3.079a.769.769 0 0 0 .769.769h2.078a.576.576 0 0 1 .558.448 11.448 11.448 0 0 0 1.336 3.212.578.578 0 0 1-.079.712l-1.477 1.469a.767.767 0 0 0 0 1.086l2.178 2.178a.767.767 0 0 0 1.086 0l1.473-1.473a.578.578 0 0 1 .712-.079 11.448 11.448 0 0 0 3.212 1.336.576.576 0 0 1 .448.558v2.078a.769.769 0 0 0 .766.764h3.079a.769.769 0 0 0 .769-.769v-2.077a.576.576 0 0 1 .448-.558 11.447 11.447 0 0 0 3.212-1.336.578.578 0 0 1 .712.079l1.469 1.477a.767.767 0 0 0 1.086 0l2.178-2.178a.766.766 0 0 0 0-1.086l-1.473-1.473a.578.578 0 0 1-.079-.712 11.448 11.448 0 0 0 1.336-3.212.576.576 0 0 1 .558-.448h2.078a.769.769 0 0 0 .764-.766v-3.079a.769.769 0 0 0-.771-.765zM215.6 57.022a6.423 6.423 0 1 1 6.423-6.423 6.423 6.423 0 0 1-6.423 6.423z" transform="translate(-183.481 -36)" style="fill:#c8102e"/>
</svg>
