<svg xmlns="http://www.w3.org/2000/svg" width="46.593" height="46.593" viewBox="0 0 46.593 46.593">
    <g data-name="Group 141">
        <path data-name="Path 1145" d="M49.474 29.813a19.635 19.635 0 0 0-8.457 37.361l.615-11.883s-1.157-.38-1.41-.5c-2.453-1.081-4.236-4.263-4.236-8.393 0-4.507 3.5-8.389 6.874-8.421h.013c3.38.032 6.875 3.914 6.875 8.421 0 4.13-1.785 7.311-4.233 8.393-.019.008-1.421.518-1.421.518l.687 13.213a19.26 19.26 0 0 0 10.942-.442l.609-11.78a6.313 6.313 0 0 1-3.832-2.654c-1.062-1.591.818-15.673.818-15.673h1.223v13.214h1.214V37.974h1.328V51.19h1.209V37.974h1.378V51.19h1.213V37.974h.938s1.88 14.082.816 15.673a6.331 6.331 0 0 1-3.788 2.648l-.054.02.529 10.128a19.637 19.637 0 0 0-9.852-36.63z" transform="translate(-26.176 -26.164)" style="fill:#c8102e"/>
        <path data-name="Path 1146" d="M92.358 142.664a5.656 5.656 0 0 1 .169-.564.257.257 0 0 0-.143-.286.235.235 0 0 0-.309.067l-.329.53a5.693 5.693 0 0 0-.553 1.249 10.33 10.33 0 0 0-.379 1.813 8.649 8.649 0 0 0-.028 1.051 4.973 4.973 0 0 0 .2 1.114 7.212 7.212 0 0 0 1.756 3.207 6.043 6.043 0 0 0 .939.761l.089.063c.054.036.106.068.157.1a1.8 1.8 0 0 0 .378.156.227.227 0 0 0 .258-.108.23.23 0 0 0-.076-.273 2.459 2.459 0 0 1-.279-.306 5.548 5.548 0 0 1-.36-.493c-.1-.139-.209-.3-.314-.451a15.9 15.9 0 0 1-1.234-3.054 4.06 4.06 0 0 1-.174-.84 8.578 8.578 0 0 1-.049-.9 11.867 11.867 0 0 1 .074-1.667 6.506 6.506 0 0 1 .207-1.169z" transform="translate(-79.672 -124.431)" style="fill:#c8102e"/>
        <path data-name="Path 1147" d="M23.3 0a23.3 23.3 0 1 0 23.3 23.3A23.325 23.325 0 0 0 23.3 0zm0 44.856A21.56 21.56 0 1 1 44.859 23.3 21.585 21.585 0 0 1 23.3 44.856z" style="fill:#c8102e"/>
    </g>
</svg>
