<svg xmlns="http://www.w3.org/2000/svg" width="261.01" height="63.32" viewBox="0 0 261.01 63.32">
    <g data-name="Group 135">
        <g data-name="Group 133">
            <g data-name="Group 131">
                <path data-name="Path 1120" d="M1694.448-1263.647s10.11-43.274 56.219-28.912c-31.463-1.417-46.014 5.669-55.557 28.912-.379.847-.662 0-.662 0z" transform="translate(-1685.41 1321.924)" style="fill:#fff"/>
                <path data-name="Path 1121" d="M0 .541s17.276 50 57.239 27.359C31.736 35.263 9.51 23.462.668.33.29-.52 0 .541 0 .541z" transform="rotate(-30 64.468 13.656)" style="fill:#fff"/>
            </g>
            <g data-name="Group 132">
                <path data-name="Path 1120" d="M0 31.833S10.11-11.441 56.219 2.921C24.755 1.5 10.2 8.59.661 31.833c-.378.85-.661 0-.661 0z" transform="rotate(16.05 -18.427 87.342)" style="fill:#fff"/>
                <path data-name="Path 1121" d="M0 .541s17.193 49.71 57.155 27.07C31.652 34.975 9.51 23.462.668.33.29-.52 0 .541 0 .541z" transform="rotate(-14.02 63.586 -51.54)" style="fill:#fff"/>
            </g>
            <path data-name="Path 1122" d="M1603.118-1128.685a35.472 35.472 0 0 0 8.94 5.669 48.109 48.109 0 0 0-3.925 11.484s-.66-7.944 1.738-10.342c-4.259-1.203-6.753-6.811-6.753-6.811z" transform="translate(-1600.614 1167.062)" style="fill:#d41736"/>
            <path data-name="Path 1123" d="M1603.118-1128.685a29.691 29.691 0 0 0 7.482 4.745 40.265 40.265 0 0 0-3.284 9.611s-.553-6.648 1.455-8.656c-4.01-1.324-5.653-5.7-5.653-5.7z" transform="translate(-1603.118 1169.86)" style="fill:#d41736"/>
        </g>
        <g data-name="Group 134">
            <path data-name="Path 1126" d="M25.77-121.374a6.28 6.28 0 0 0-1.473-4.349 4.913 4.913 0 0 0-3.844-1.647 4.917 4.917 0 0 0-3.835 1.516 6.074 6.074 0 0 0-1.377 4.236 6.525 6.525 0 0 0 1.386 4.462 4.968 4.968 0 0 0 3.931 1.569 4.909 4.909 0 0 0 3.826-1.525 6.109 6.109 0 0 0 1.386-4.262zm2.65-8.126v15.949h-2.65v-2.894a6.973 6.973 0 0 1-2.449 2.658 6.252 6.252 0 0 1-3.338.915 7.049 7.049 0 0 1-5.534-2.362 9.055 9.055 0 0 1-2.1-6.249 9.171 9.171 0 0 1 2.039-6.266 6.892 6.892 0 0 1 5.456-2.327 6.551 6.551 0 0 1 3.477.9A6.474 6.474 0 0 1 25.7-126.5v-3zm9.061 15.949V-129.5H39.9v3.312a8.444 8.444 0 0 1 2.336-2.963 5.032 5.032 0 0 1 3.016-.889 5.513 5.513 0 0 1 .941.078 5.786 5.786 0 0 1 .906.235l-.906 2.458a6.769 6.769 0 0 0-.889-.235 4.353 4.353 0 0 0-.8-.078 3.682 3.682 0 0 0-3.242 1.56 8.291 8.291 0 0 0-1.081 4.7v7.774zm16.1 0V-129.5h2.423v3.312a8.444 8.444 0 0 1 2.336-2.963 5.032 5.032 0 0 1 3.016-.889 5.513 5.513 0 0 1 .941.078 5.786 5.786 0 0 1 .906.235l-.906 2.458a6.77 6.77 0 0 0-.889-.235 4.353 4.353 0 0 0-.8-.078 3.682 3.682 0 0 0-3.242 1.56 8.291 8.291 0 0 0-1.081 4.7v7.774zm17.671-7.931a5.93 5.93 0 0 0 1.691 4.279 5.483 5.483 0 0 0 4.1 1.752A5.408 5.408 0 0 0 81.1-117.2a5.963 5.963 0 0 0 1.673-4.279 5.963 5.963 0 0 0-1.673-4.279 5.408 5.408 0 0 0-4.061-1.752 5.474 5.474 0 0 0-4.1 1.752 5.947 5.947 0 0 0-1.684 4.279zm-2.894 0a8.605 8.605 0 0 1 .645-3.321 8.358 8.358 0 0 1 1.883-2.78 8.536 8.536 0 0 1 2.806-1.856 8.82 8.82 0 0 1 3.347-.636 8.56 8.56 0 0 1 3.3.645 8.94 8.94 0 0 1 2.833 1.883 8.174 8.174 0 0 1 1.883 2.763 8.56 8.56 0 0 1 .645 3.3 8.431 8.431 0 0 1-.645 3.286 8.22 8.22 0 0 1-1.883 2.745 8.993 8.993 0 0 1-2.85 1.917 8.4 8.4 0 0 1-3.286.662 8.633 8.633 0 0 1-3.338-.654 8.747 8.747 0 0 1-2.815-1.874A8.825 8.825 0 0 1 69-118.191a8.412 8.412 0 0 1-.639-3.288zm34.945-8.593 4.776 11.452 4.288-10.877h3.068l-7.094 16.943-5.241-12.234-5.247 12.236-7.114-16.945h3.033l4.253 10.877 4.846-11.452z" transform="translate(77.075 156.219)" style="fill:#c8102e"/>
            <path data-name="Path 1125" d="M6.5-187.929v-13.7H3.43v-2.249H6.5v-4.622q0-3.974 1-5.377t3.6-1.4a8.323 8.323 0 0 1 1.229.087 6 6 0 0 1 1.124.279v2.824a4.407 4.407 0 0 0-1.055-.436 4.278 4.278 0 0 0-1.089-.139 1.76 1.76 0 0 0-1.656.767 9.325 9.325 0 0 0-.453 3.765v4.253h4.253v2.249H9.27v13.7zm12.669-23.636a1.913 1.913 0 0 1 .584-1.4 1.934 1.934 0 0 1 1.421-.584 1.9 1.9 0 0 1 1.4.593 1.963 1.963 0 0 1 .584 1.429 1.9 1.9 0 0 1-.575 1.394 1.92 1.92 0 0 1-1.412.575 1.949 1.949 0 0 1-1.421-.575 1.926 1.926 0 0 1-.583-1.432zm.645 23.636v-15.949h2.754v15.949zm10.386-2.684 2.336-1.569a4.8 4.8 0 0 0 1.673 1.909 4.389 4.389 0 0 0 2.388.636 3.369 3.369 0 0 0 2.17-.662 2.124 2.124 0 0 0 .828-1.743 1.877 1.877 0 0 0-.567-1.394 5.235 5.235 0 0 0-1.944-1.028l-.453-.157q-5.822-2-5.822-5.02a4.354 4.354 0 0 1 1.569-3.469 6.055 6.055 0 0 1 4.079-1.342 7.183 7.183 0 0 1 3.556.828 4.763 4.763 0 0 1 2.127 2.344l-2.214 1.36a3.71 3.71 0 0 0-1.438-1.691 4.079 4.079 0 0 0-2.205-.593 2.849 2.849 0 0 0-1.961.671 2.19 2.19 0 0 0-.758 1.717q0 1.464 3.172 2.458.593.192.941.3a8.76 8.76 0 0 1 3.617 1.909 3.94 3.94 0 0 1 1.02 2.833 4.632 4.632 0 0 1-1.612 3.669 6.182 6.182 0 0 1-4.21 1.4 7.929 7.929 0 0 1-3.791-.837 6.2 6.2 0 0 1-2.501-2.529zm19.8 2.684v-27.018h2.667v13.526a6.692 6.692 0 0 1 2.475-2.283 7.175 7.175 0 0 1 3.347-.75 6.165 6.165 0 0 1 4.41 1.5 5.456 5.456 0 0 1 1.586 4.166v10.859h-2.794v-9.4a5.388 5.388 0 0 0-1.02-3.6 3.944 3.944 0 0 0-3.146-1.177 5.423 5.423 0 0 0-2.222.444 4.4 4.4 0 0 0-1.665 1.264 3.868 3.868 0 0 0-.723 1.429 12.135 12.135 0 0 0-.218 2.789v8.245z" transform="translate(196.53 230.6)" style="fill:#fff"/>
        </g>
    </g>
</svg>
