<svg xmlns="http://www.w3.org/2000/svg" width="210" height="210" viewBox="0 0 210 210">
    <g data-name="Group 127" transform="translate(-720 -8057)">
        <circle data-name="Ellipse 15" cx="105" cy="105" r="105" transform="translate(720 8057)" style="fill:#c8102e"/>
        <path data-name="Path 41" d="M3.479 0v-6.674L24.211-27.69a21.175 21.175 0 0 0 2.379-2.91 10.116 10.116 0 0 0 1.278-2.662 9.3 9.3 0 0 0 .391-2.663 5.682 5.682 0 0 0-2.308-4.615 9.082 9.082 0 0 0-5.857-1.846A14.522 14.522 0 0 0 13.774-41a25.5 25.5 0 0 0-6.39 4.722L2.13-42.671a30.575 30.575 0 0 1 8.733-5.858 23.852 23.852 0 0 1 9.514-1.952 20.919 20.919 0 0 1 8.875 1.775 14.276 14.276 0 0 1 5.964 4.9 12.665 12.665 0 0 1 2.13 7.313 14.967 14.967 0 0 1-.674 4.544 16.287 16.287 0 0 1-2.166 4.3A34.052 34.052 0 0 1 30.53-23L15.478-7.881l22.649-.071V0zm57.439.781A25.976 25.976 0 0 1 43.1-5.893l5.538-6.461a23.331 23.331 0 0 0 6.177 3.905 17.251 17.251 0 0 0 6.532 1.207 11.15 11.15 0 0 0 5.041-1.065 8.416 8.416 0 0 0 3.373-2.982A8.04 8.04 0 0 0 71-15.762a7.432 7.432 0 0 0-2.8-5.964 10.971 10.971 0 0 0-7.277-2.343 17.375 17.375 0 0 0-4.473.6 20.829 20.829 0 0 0-4.615 1.881L45.369-23.5l1.136-26.2h31.311v7.952h-23.5L53.747-28.9a23.16 23.16 0 0 1 4.9-1.811 21.888 21.888 0 0 1 5.183-.6 19.231 19.231 0 0 1 8.77 1.881 13.923 13.923 0 0 1 5.786 5.29 15.077 15.077 0 0 1 2.059 7.952 16.124 16.124 0 0 1-2.45 8.875 16.385 16.385 0 0 1-6.851 5.964A23.213 23.213 0 0 1 60.918.781zm40.115-9.94v-12.5H89.389v-7.313h11.644v-12.5h7.526v12.5H120.2v7.313h-11.641v12.5z" transform="translate(763.87 8180)" style="fill:#fff"/>
        <text data-name="Years of experience" transform="translate(762 8211)" style="font-size:14px;font-family:RedHatDisplay-Regular,Red Hat Display;fill:#fff"><tspan x="0" y="0">Years Of Experience</tspan></text>
        <g data-name="Group 44">
            <path data-name="Icon ionic-md-star" d="m12.012 17.054 5.077 3.063-1.343-5.778 4.481-3.885-5.907-.507L12.012 4.5 9.7 9.947l-5.9.507 4.482 3.885-1.347 5.778z" transform="translate(790.738 8095.5)" style="fill:#fff"/>
            <path data-name="Icon ionic-md-star" d="m18.848 27.5 9.3 5.612-2.46-10.585 8.21-7.118-10.824-.93L18.848 4.5l-4.228 9.979-10.82.93 8.21 7.118-2.464 10.585z" transform="translate(807.168 8082.5)" style="fill:#fff"/>
            <path data-name="Icon ionic-md-star" d="m12.012 17.054 5.077 3.063-1.343-5.778 4.481-3.885-5.907-.507L12.012 4.5 9.7 9.947l-5.9.507 4.482 3.885-1.347 5.778z" transform="translate(835.311 8095.5)" style="fill:#fff"/>
        </g>
    </g>
</svg>
