<svg xmlns="http://www.w3.org/2000/svg" width="99.398" height="15.617" viewBox="0 0 99.398 15.617">
  <g id="Group_67" data-name="Group 67" transform="translate(648.559 -409)">
    <path id="Icon_ionic-md-star" data-name="Icon ionic-md-star" d="M12.012,17.054l5.077,3.063-1.343-5.778,4.481-3.885L14.32,9.947,12.012,4.5,9.7,9.947,3.8,10.454l4.482,3.885L6.935,20.117Z" transform="translate(-652.356 404.5)" fill="#c8102e"/>
    <path id="Icon_ionic-md-star-2" data-name="Icon ionic-md-star" d="M12.012,17.054l5.077,3.063-1.343-5.778,4.481-3.885L14.32,9.947,12.012,4.5,9.7,9.947,3.8,10.454l4.482,3.885L6.935,20.117Z" transform="translate(-631.614 404.5)" fill="#c8102e"/>
    <path id="Icon_ionic-md-star-3" data-name="Icon ionic-md-star" d="M12.012,17.054l5.077,3.063-1.343-5.778,4.481-3.885L14.32,9.947,12.012,4.5,9.7,9.947,3.8,10.454l4.482,3.885L6.935,20.117Z" transform="translate(-610.872 404.5)" fill="#c8102e"/>
    <path id="Icon_ionic-md-star-4" data-name="Icon ionic-md-star" d="M12.012,17.054l5.077,3.063-1.343-5.778,4.481-3.885L14.32,9.947,12.012,4.5,9.7,9.947,3.8,10.454l4.482,3.885L6.935,20.117Z" transform="translate(-590.13 404.5)" fill="#c8102e"/>
    <path id="Icon_ionic-md-star-5" data-name="Icon ionic-md-star" d="M12.012,17.054l5.077,3.063-1.343-5.778,4.481-3.885L14.32,9.947,12.012,4.5,9.7,9.947,3.8,10.454l4.482,3.885L6.935,20.117Z" transform="translate(-569.388 404.5)" fill="#c8102e"/>
  </g>
</svg>
