<svg version="1.1" xmlns="http://www.w3.org/2000/svg" width="110" height="30">
<path d="M0 0 C36.3 0 72.6 0 110 0 C110 9.9 110 19.8 110 30 C73.7 30 37.4 30 0 30 C0 20.1 0 10.2 0 0 Z " fill="#2F2D2D" transform="translate(0,0)"/>
<path d="M0 0 C2 0 2 0 3.5 1.4375 C3.995 1.953125 4.49 2.46875 5 3 C5.66 3.33 6.32 3.66 7 4 C6.34 6.64 5.68 9.28 5 12 C4.236875 11.814375 3.47375 11.62875 2.6875 11.4375 C-0.08967375 10.77180827 -0.08967375 10.77180827 -3 12 C-3 10.02 -3 8.04 -3 6 C-3.66 6 -4.32 6 -5 6 C-5 5.34 -5 4.68 -5 4 C-4.0409375 3.8453125 -4.0409375 3.8453125 -3.0625 3.6875 C-2.381875 3.460625 -1.70125 3.23375 -1 3 C-0.67 2.01 -0.34 1.02 0 0 Z " fill="#B0142D" transform="translate(36,9)"/>
<path d="M0 0 C0.66 0 1.32 0 2 0 C2.33 0.99 2.66 1.98 3 3 C5.01508358 3.73323796 5.01508358 3.73323796 7 4 C7 4.66 7 5.32 7 6 C6.34 6 5.68 6 5 6 C5 7.98 5 9.96 5 12 C4.236875 11.814375 3.47375 11.62875 2.6875 11.4375 C-0.08967375 10.77180827 -0.08967375 10.77180827 -3 12 C-3.66 9.36 -4.32 6.72 -5 4 C-3.68 4 -2.36 4 -1 4 C-0.67 2.68 -0.34 1.36 0 0 Z " fill="#B1142D" transform="translate(89,9)"/>
<path d="M0 0 C0.66 0.33 1.32 0.66 2 1 C2 1.99 2 2.98 2 4 C3.65 4 5.3 4 7 4 C6.01 5.485 6.01 5.485 5 7 C4.83286431 9.62531524 4.83286431 9.62531524 5 12 C3.6078125 11.7215625 3.6078125 11.7215625 2.1875 11.4375 C-1.01343771 10.75876119 -1.01343771 10.75876119 -4 12 C-3.95875 11.236875 -3.9175 10.47375 -3.875 9.6875 C-3.77919176 6.77281584 -3.77919176 6.77281584 -6 4 C-4.35 4 -2.7 4 -1 4 C-0.67 2.68 -0.34 1.36 0 0 Z " fill="#B6132D" transform="translate(19,9)"/>
<path d="M0 0 C0.66 1.32 1.32 2.64 2 4 C3.65 4 5.3 4 7 4 C6.01 5.485 6.01 5.485 5 7 C4.61500109 8.65549531 4.27206865 10.3222433 4 12 C3.236875 11.814375 2.47375 11.62875 1.6875 11.4375 C-1.08967375 10.77180827 -1.08967375 10.77180827 -4 12 C-4 10.35 -4 8.7 -4 7 C-4.66 6.67 -5.32 6.34 -6 6 C-6 5.34 -6 4.68 -6 4 C-4.35 4 -2.7 4 -1 4 C-0.67 2.68 -0.34 1.36 0 0 Z " fill="#B7132D" transform="translate(72,9)"/>
<path d="M0 0 C0.66 0 1.32 0 2 0 C2 1.32 2 2.64 2 4 C3.65 4 5.3 4 7 4 C6.01 5.485 6.01 5.485 5 7 C4.83286431 9.62531524 4.83286431 9.62531524 5 12 C4.05125 11.814375 3.1025 11.62875 2.125 11.4375 C-0.89868793 10.71313368 -0.89868793 10.71313368 -3 12 C-3.309375 11.05125 -3.61875 10.1025 -3.9375 9.125 C-4.87394742 6.13919592 -4.87394742 6.13919592 -6 4 C-4.35 4 -2.7 4 -1 4 C-0.67 2.68 -0.34 1.36 0 0 Z " fill="#B7132D" transform="translate(54,9)"/>
</svg>
