<?xml version="1.0" encoding="UTF-8"?>
<svg version="1.1" xmlns="http://www.w3.org/2000/svg" width="21" height="24">
<path d="M0 0 C6.93 0 13.86 0 21 0 C21 7.92 21 15.84 21 24 C14.07 24 7.14 24 0 24 C0 16.08 0 8.16 0 0 Z " fill="#2D3134" transform="translate(0,0)"/>
<path d="M0 0 C2 2 2 2 2.375 5.75 C2.25540512 10.1271725 0.96979819 12.70914254 -2 16 C-4.4375 17.1875 -4.4375 17.1875 -7 17 C-9.56411708 14.84381063 -11.49549813 13.00900373 -13 10 C-13.06950541 8.45976004 -13.08452357 6.91665012 -13.0625 5.375 C-13.05347656 4.55773437 -13.04445313 3.74046875 -13.03515625 2.8984375 C-13.02355469 2.27195312 -13.01195312 1.64546875 -13 1 C-8.25502375 -0.96742918 -5.01023306 -1.15620763 0 0 Z " fill="#2187D9" transform="translate(16,4)"/>
</svg>
