<svg xmlns="http://www.w3.org/2000/svg" width="37.01" height="31.532" viewBox="0 0 37.01 31.532">
  <path id="feedback" d="M31.157,18.675a2.057,2.057,0,0,1-1.453.6H26.8a2.057,2.057,0,0,1-2.057-2.057V14.314a2.057,2.057,0,0,1,.6-1.453l5.581-5.594-.315-.027H5.928A3.428,3.428,0,0,0,2.5,10.667V28.492A3.428,3.428,0,0,0,5.928,31.92H6.6l2.166,3.771a.672.672,0,0,0,1.179,0l2.166-3.771h18.5a3.428,3.428,0,0,0,3.428-3.428V15.8ZM8.67,13.409H19.639a.686.686,0,0,1,0,1.371H8.67a.686.686,0,0,1,0-1.371Zm0,5.485H19.639a.686.686,0,0,1,0,1.371H8.67a.686.686,0,0,1,0-1.371Zm19.2,6.856H8.67a.686.686,0,0,1,0-1.371h19.2a.686.686,0,0,1,0,1.371ZM38.712,5.306a2.742,2.742,0,0,1,0,3.867L30.2,17.7a.672.672,0,0,1-.494.206H26.8a.7.7,0,0,1-.686-.686V14.314a.672.672,0,0,1,.206-.494l8.529-8.515a2.742,2.742,0,0,1,3.867,0Z" transform="translate(-2.5 -4.508)" fill="#fff"/>
</svg>
