<svg xmlns="http://www.w3.org/2000/svg" width="35.668" height="49.497" viewBox="0 0 35.668 49.497">
    <path data-name="Path 117" d="M55.461 4.557H41.306a.713.713 0 0 0-.714.714v1.4a3.82 3.82 0 0 0-2.453 1.619 15.006 15.006 0 0 0-14.615 14.979v11.214l-.58 2.671h-.723a.714.714 0 0 0-.714.714V52.34a.714.714 0 0 0 .714.714h6.871a.713.713 0 0 0 .714-.714V37.868a.713.713 0 0 0-.714-.714h-.722l-.58-2.671V23.252a10.719 10.719 0 0 1 10.361-10.7 3.771 3.771 0 0 0 .35.434v2.958a7.855 7.855 0 0 0-7.133 7.811V50.3a2.756 2.756 0 0 0 2.754 2.754h14.364A2.756 2.756 0 0 0 51.24 50.3V23.756a7.855 7.855 0 0 0-7.133-7.811v-2.958a3.8 3.8 0 0 0 .938-1.85 21.285 21.285 0 0 1 8.67 2.187.714.714 0 0 0 .693-1.248 21.363 21.363 0 0 0-6.085-2.022L55.654 8a.715.715 0 0 0 .521-.688V5.274a.714.714 0 0 0-.714-.717zM41.306 8.024a2.385 2.385 0 1 1-2.386 2.385 2.385 2.385 0 0 1 2.386-2.385zm-1.375 7.884v-1.945a3.753 3.753 0 0 0 2.749 0v1.946zM28.379 51.626h-5.444V38.582h5.444zm-3.974-14.472.408-1.881H26.5l.408 1.881zm1.958-13.9v10.592h-1.411V23.269a13.579 13.579 0 0 1 12.6-13.526 3.689 3.689 0 0 0 .012 1.412 12.15 12.15 0 0 0-11.2 12.1zm23.451.5V50.3a1.327 1.327 0 0 1-1.326 1.326H34.122A1.327 1.327 0 0 1 32.8 50.3V23.756a6.426 6.426 0 0 1 6.42-6.419h4.177a6.426 6.426 0 0 1 6.422 6.419zM54.75 6.77 45 9.5a3.82 3.82 0 0 0-2.984-2.833v-.682h12.73z" style="fill:#fff;stroke:#fff" transform="translate(-21.007 -4.057)"/>
    <path data-name="Path 118" d="M53.136 61v12.954a.713.713 0 0 0 .714.714h12.362a.714.714 0 0 0 .714-.714V61a.714.714 0 0 0-.714-.714h-12.36a.713.713 0 0 0-.716.714zm1.428.714H65.5V73.24H54.566z" transform="translate(-39.734 -37.052)" style="fill:#fff;stroke:#fff"/>
</svg>
