<svg xmlns="http://www.w3.org/2000/svg" width="37.284" height="37.59" viewBox="0 0 37.284 37.59">
    <g transform="translate(-.718 -.25)">
        <circle data-name="Ellipse 96" cx="3.972" cy="3.972" r="3.972" transform="translate(15.366 18.567)" style="fill:#fff"/>
        <circle data-name="Ellipse 97" cx="3.531" cy="3.531" r="3.531" transform="translate(27.283 20.921)" style="fill:#fff"/>
        <circle data-name="Ellipse 98" cx="3.531" cy="3.531" r="3.531" transform="translate(4.332 20.921)" style="fill:#fff"/>
        <path data-name="Path 1127" d="M2.087 105.949h7.872a.444.444 0 0 0 .415-.591 2.207 2.207 0 0 1-.11-.435 8.785 8.785 0 0 1-.088-1.231 9.092 9.092 0 0 1 1.646-5.23.444.444 0 0 0-.129-.628 7.189 7.189 0 0 0-10.975 6.111 6.83 6.83 0 0 0 .054.847 1.327 1.327 0 0 0 1.315 1.158z" transform="translate(0 -68.109)" style="fill:#fff"/>
        <path data-name="Path 1128" d="M89.529 97.851a.444.444 0 0 0-.128.626 9.1 9.1 0 0 1 1.633 5.212 8.751 8.751 0 0 1-.088 1.231 2.18 2.18 0 0 1-.11.435.445.445 0 0 0 .415.591h7.915a1.327 1.327 0 0 0 1.316-1.158 6.766 6.766 0 0 0 .054-.847 7.188 7.188 0 0 0-11.008-6.091z" transform="translate(-62.534 -68.107)" style="fill:#fff"/>
        <path data-name="Path 1129" d="M35.86 100.469a7.9 7.9 0 0 0 .079 1.107 1.339 1.339 0 0 0 1.315 1.151h13.771a1.339 1.339 0 0 0 1.314-1.151 7.917 7.917 0 0 0 .08-1.107 8.28 8.28 0 1 0-16.559 0z" transform="translate(-24.801 -64.886)" style="fill:#fff"/>
        <path data-name="Path 1130" d="M84.266 20.718c0 3.087-1.954 5.967-5.229 7.706a.443.443 0 0 0 .232.83 11.615 11.615 0 0 0 1.295-.141l3.872 1.056A1.332 1.332 0 0 0 86 28.351a5.139 5.139 0 0 1-.474-1.624 5.862 5.862 0 0 0 1.9-4.2 6.234 6.234 0 0 0-3.054-5.127.445.445 0 0 0-.653.533 7.417 7.417 0 0 1 .547 2.785z" transform="translate(-55.114 -12.052)" style="fill:#fff"/>
        <path data-name="Path 1131" d="M22.32 13.935a6.556 6.556 0 0 1-.62 2.145 1.565 1.565 0 0 0 1.836 2.136l4.92-1.342a14.3 14.3 0 0 0 2.4.206c6.041 0 10.952-3.775 10.952-8.415S36.9.25 30.862.25 19.91 4.025 19.91 8.665a7.313 7.313 0 0 0 2.41 5.27zm13.8-6.55A1.324 1.324 0 1 1 34.8 8.71a1.324 1.324 0 0 1 1.32-1.325zm-5.3 0A1.324 1.324 0 1 1 29.5 8.71a1.324 1.324 0 0 1 1.324-1.325zm-5.3 0A1.324 1.324 0 1 1 24.2 8.71a1.324 1.324 0 0 1 1.327-1.325z" transform="translate(-13.545)" style="fill:#fff"/>
    </g>
</svg>
