<svg xmlns="http://www.w3.org/2000/svg" width="112.59" height="97.431" viewBox="0 0 112.59 97.431">
    <path data-name="Path 3369" d="M112.59 95.132a1.492 1.492 0 0 0-.63.167 35.258 35.258 0 0 1-7.587 1.981 10.263 10.263 0 0 1-4.193-.133c-1.775-.492-2.292-1.684-1.417-3.311a13.456 13.456 0 0 1 1.374-1.871 1.507 1.507 0 0 0-.376-2.516 11.568 11.568 0 0 0-4.3-1.5 64.449 64.449 0 0 0-12.815-.858 99.172 99.172 0 0 0-10.513.681c-3.195.357-6.377.8-9.552 1.285-4.138.631-8.255 1.4-12.388 2.06-3.641.585-7.276 1.209-10.926 1.746a53.6 53.6 0 0 1-9.538.809 44.069 44.069 0 0 1-15.735-3.4.956.956 0 0 1-.644-.841c-.2-1.653-.406-3.3-.6-4.957-.1-.815-.145-.853-.954-.822a25.474 25.474 0 0 0-10.319 2.575.538.538 0 0 1-.6.047c.157-.673.309-1.379.488-2.078.589-2.307 1.191-4.61 1.78-6.916a1.289 1.289 0 0 0-.122-.977c-1-1.83-1.984-3.669-3-5.536C0 70.297 0 69.857 0 69.361c1.538-.517 3.074-.985 4.615-1.438a31.966 31.966 0 0 1 6.528-1.274 3.028 3.028 0 0 0 .333-.07 53.586 53.586 0 0 1-1.014-3.262 49.832 49.832 0 0 1-1.707-16.563 47.981 47.981 0 0 1 2.156-11.851A50.32 50.32 0 0 1 42.543 2.591 47.305 47.305 0 0 1 51.215.545a48.207 48.207 0 0 1 8.072-.532 49.233 49.233 0 0 1 22.93 6 49.744 49.744 0 0 1 23.651 28.3 49.012 49.012 0 0 1 2.189 10.22 50.45 50.45 0 0 1-1.9 19.947 46.352 46.352 0 0 1-5.151 11.423 2.025 2.025 0 0 0-.363 1.675 12.079 12.079 0 0 1 .28 2.178c.031.555.225.766.8.743a24.907 24.907 0 0 0 9.325-2.206 3.662 3.662 0 0 1 1.227-.482 2.459 2.459 0 0 1-.188 1.17q-.961 3.931-1.968 7.851a1.607 1.607 0 0 0 .169 1.3c.772 1.32 1.5 2.666 2.271 4.032.028.986.028 1.943.028 2.955M85.245 51.924c-.354-1.689-.4-3.428-.828-5.1a9.665 9.665 0 0 0-.588-2.288 60.263 60.263 0 0 1-4.306 1.133c-1.4.308-1.388.338-1.376 1.805a.725.725 0 0 0 .4.72c2.25 1.263 4.529 2.475 6.772 3.911a13.364 13.364 0 0 1 .209 2.552c2.48-.962 4.969-1.757 6.6-4.029a3.318 3.318 0 0 1-1.588 2.148 18.326 18.326 0 0 1-4.1 1.981c-1.125.389-.836.181-.947 1.4-.011.115.048.236.044.353a4.143 4.143 0 0 1-.254 1.923c-.283-.7.048-1.277 0-1.952a1.953 1.953 0 0 1-1.775.469c-.544-.035-.727.145-.721.7.026 2.305.009 4.611.014 6.916 0 .207-.069.442.192.653a19.336 19.336 0 0 0 6.677-3.216 2.183 2.183 0 0 1-1.035 1.138 18.248 18.248 0 0 1-3.967 1.9.888.888 0 0 0-.6.652 4.4 4.4 0 0 1-.952 2l.709-2.228c-.954.054-1.02.115-1.022.913 0 .993.006 1.987 0 2.98 0 1.635-.006 1.624 1.65 1.614a1.022 1.022 0 0 0 .9-.462 35.429 35.429 0 0 0 4.751-8.572 33.506 33.506 0 0 0 1.58-18.657 24.871 24.871 0 0 0-.916-3.438 2.848 2.848 0 0 0-.175.284 5.364 5.364 0 0 1-1.989 2.222 16.262 16.262 0 0 1-3.908 1.877c-.33.114-.428.256-.349.607a39.2 39.2 0 0 1 .913 4.905c.073.754.374 1.519 0 2.192m16.323 13.819a45.119 45.119 0 0 0 2.748-14.2 48.147 48.147 0 0 0-.552-8.964 44.508 44.508 0 0 0-2.11-8.3 46.186 46.186 0 0 0-9.424-15.48A45.444 45.444 0 0 0 76.762 7.799a43.561 43.561 0 0 0-14.6-3.631 48.533 48.533 0 0 0-11.457.472 46.071 46.071 0 0 0-9.8 2.885 45.765 45.765 0 0 0-25.272 26.113 43.635 43.635 0 0 0-2.905 13.5 42.763 42.763 0 0 0 .38 9.206 53.031 53.031 0 0 0 1.341 6.216 48.838 48.838 0 0 0 5.717 12.535 3.072 3.072 0 0 0 2.478 1.746 1.666 1.666 0 0 1 .174.039 46.053 46.053 0 0 0 11.571.509c.518-.043 1.033-.124 1.66-.2-7.5-6.384-11.864-14.352-12.735-24.038a34.446 34.446 0 0 1 8.059-25.926A35.234 35.234 0 0 1 73.148 17.7a33.457 33.457 0 0 1 16.191 14.932c7.006 13.138 5.848 25.92-2.246 38.283.654.061 1.263.131 1.873.172a40.37 40.37 0 0 1 8.809 1.324.68.68 0 0 0 .939-.417 52.386 52.386 0 0 0 2.87-6.255m-47.265 8.552c4.734-.775 9.465-1.566 14.223-2.193 3.366-.444 6.734-.827 10.122-1.026.593-.035.761-.274.759-.851-.019-5.008-.009-10.015-.011-15.023 0-.8.045-1.57 1.168-1.754-1.513-.822-2.9-1.593-4.306-2.332a2.457 2.457 0 0 1-1.484-2.492c.147-2.3-.051-4.608.018-6.911.013-.436-.144-.553-.546-.545-.973.019-1.948.025-2.921 0-.463-.01-.635.157-.622.626.029 1.112.015 2.225.026 3.338a1.391 1.391 0 0 1-.343.985 1.567 1.567 0 0 1-2.184.382c-2.909-1.594-5.817-3.191-8.694-4.841a1.446 1.446 0 0 0-1.679 0q-9.166 5.4-18.362 10.744L37.2 53.734c.64.513.514 1.152.514 1.76v20.627c0 .265-.086.556.147.83 5.46-.778 10.908-1.711 16.457-2.655m-40.1 9.366c.131 1.3.272 2.6.39 3.9a1.358 1.358 0 0 0 1 1.314c.717.232 1.411.536 2.128.771a41.509 41.509 0 0 0 10.256 1.966 42.476 42.476 0 0 0 8.311-.346c2.418-.313 4.824-.717 7.232-1.1 3.837-.614 7.671-1.245 11.506-1.87 2.741-.447 5.475-.935 8.223-1.332 3.669-.531 7.342-1.03 11.03-1.426a84.089 84.089 0 0 1 9.274-.455 59.219 59.219 0 0 1 9.2.61 29.2 29.2 0 0 1 6.9 1.759c.157.067.3.2.556.105-.234-1.771-.467-3.553-.707-5.333-.3-2.239-.62-4.475-.911-6.716-.121-.932-.149-.992-1.049-1.266a38.41 38.41 0 0 0-9.809-1.418c-2.52-.1-5.047-.045-7.57-.017a39.763 39.763 0 0 0-5.343.388l-9.474 1.4q-4.972.744-9.942 1.506l-7.176 1.084c-2.9.437-5.806.858-8.706 1.31a62.554 62.554 0 0 1-7.922.858 41.872 41.872 0 0 1-8.823-.709 34.18 34.18 0 0 1-8.166-2.528c-.4-.187-.818-.357-1.292-.563.078.858.133 1.626.221 2.391.215 1.87.446 3.739.673 5.718m59.537-63.956a32.644 32.644 0 0 0-6.192-2.373c.475.923.349 1.337-.519 1.826a7.037 7.037 0 0 1-1.757.723 21.1 21.1 0 0 1-5.32.7c-.8-.007-1.631.108-2.394.09a9.962 9.962 0 0 1-2.39-.185.733.733 0 0 0-.916.332 43.472 43.472 0 0 0-3.121 5.418c-.093.205-.27.4-.181.713 1.785.2 3.585.281 5.388.334.316.009.39-.2.387-.477-.017-1.617.428-3.182.543-4.785a1.851 1.851 0 0 1 .175-.969 1.336 1.336 0 0 1 .1 1.093 38.468 38.468 0 0 0-.527 4.6c-.069.422.125.565.535.558 1.312-.022 2.624-.011 3.935-.036.489-.009.977-.082 1.505-.129a31.678 31.678 0 0 1-.813-3.205.506.506 0 0 1 .189.232 22.542 22.542 0 0 1 .868 2.471c.093.292.173.555.6.5.964-.127 1.938-.181 2.9-.32a8.926 8.926 0 0 0 1.994-.356l-1.191-1.782a9.13 9.13 0 0 1-1.18-1.677c.236 0 .294.149.379.252a23.343 23.343 0 0 1 2.053 2.778c.164.272.332.474.709.384 1.062-.253 2.132-.473 3.194-.723.176-.042.406-.034.51-.288l-1.08-1.133.112-.1a5.9 5.9 0 0 1 1.059.941c.123.133.238.277.452.208a6.634 6.634 0 0 0 3.247-1.9 1.279 1.279 0 0 0-.377-2.089 30.536 30.536 0 0 0-2.878-1.626M69.485 3.951a45.375 45.375 0 0 0-7.4-1.143 53.276 53.276 0 0 0-7.913.079 44.477 44.477 0 0 0-8.873 1.66A47.28 47.28 0 0 0 12.245 40.48a42.845 42.845 0 0 0-.9 11.716 55.343 55.343 0 0 0 .8 6.608 46.9 46.9 0 0 0 3.511 10.843 45.149 45.149 0 0 0 3.234 5.9 1.062 1.062 0 0 0 1.162.577.542.542 0 0 0-.021-.158 13.904 13.904 0 0 0-.346-.556A46.06 46.06 0 0 1 12.1 47.391a47.939 47.939 0 0 1 1.583-9.786 45.654 45.654 0 0 1 5.586-12.652 47 47 0 0 1 9.689-10.927A46.3 46.3 0 0 1 46.4 4.991a47.393 47.393 0 0 1 6.658-1.263 45 45 0 0 1 8.923-.216 45.642 45.642 0 0 1 12.24 2.642 46.4 46.4 0 0 1 26.046 23.368 45.836 45.836 0 0 1 4.578 16.659 44.765 44.765 0 0 1-.206 9.273 45.8 45.8 0 0 1-4.341 14.718c-.37.748-.766 1.482-1.153 2.221-.123.236-.175.446.119.6s.4-.044.507-.241c.184-.33.369-.659.543-.993a46.772 46.772 0 0 0 5.144-17.469 47.8 47.8 0 0 0-1.576-17.329 47.124 47.124 0 0 0-17.657-25.27 47.631 47.631 0 0 0-16.748-7.745m-5.525 26.617c-.2-.787-.439-1.569-.6-2.364a.648.648 0 0 0-.829-.6 37.649 37.649 0 0 1-4.646.088c-.617-.006-1.045.075-1.092.784 0 .016-.057.028-.179.084.265-.927-.331-.854-.906-.878-1.468-.062-2.939-.115-4.4-.262a.822.822 0 0 0-1.01.615c-.624 1.568-1.251 3.136-1.781 4.739a30.052 30.052 0 0 0-.959 3.211c.077.061.105.1.137.106 2.57.232 5.143.422 7.723.508.347.012.5-.106.516-.471.061-1.109.144-2.218.237-3.325a5.691 5.691 0 0 1 .329-1.89 2.505 2.505 0 0 1 .055.708c-.071 1.408-.156 2.814-.216 4.222-.033.77-.014.767.736.783 2.485.053 4.966-.123 7.45-.132.468 0 .629-.135.518-.642-.375-1.724-.7-3.458-1.083-5.282m8.288 1.753c.372.877.763 1.746 1.106 2.633a.562.562 0 0 0 .77.409c1.369-.321 2.747-.607 4.115-.934a3.779 3.779 0 0 0 1.372-.473 26.31 26.31 0 0 1-1.284-2.479 8 8 0 0 1 1.348 1.945.545.545 0 0 0 .809.294 14.87 14.87 0 0 0 2.8-1.31 5.593 5.593 0 0 0 1.64-1.451 1.73 1.73 0 0 0-.054-2.267 34.174 34.174 0 0 0-4.768-4.819 18.213 18.213 0 0 0-2.238-1.681c-.206 2.362-2.247 2.676-3.789 3.536.291.59.9.933 1.182 1.664a4.808 4.808 0 0 1-1.16-1.125c-.188-.209-.381-.421-.708-.339q-1.875.467-3.748.941c-.046.012-.077.078-.142.147a50.421 50.421 0 0 1 2.751 5.309M4.094 80.484l-.822 3.029a1.286 1.286 0 0 0 .7-.189c.221-.089.433-.2.657-.281a19.685 19.685 0 0 1 7.014-1.128c.747.011.8-.084.685-.841-.089-.587-.129-1.182-.2-1.771-.236-1.848-.424-3.7-.744-5.538a2.314 2.314 0 0 1 .545-2.134c.381-.425 1.047-.78 1.048-1.313s-.464-1.07-.687-1.62a.651.651 0 0 0-.8-.44c-.649.087-1.3.172-1.951.224a23.237 23.237 0 0 0-7.092 1.671c-.487.2-.58.407-.312.884.945 1.679 1.848 3.382 2.771 5.073a1.259 1.259 0 0 1 .161 1.023c-.329 1.082-.636 2.171-.973 3.35m105.815 10.166c-.47-.783-.931-1.571-1.412-2.346a1.411 1.411 0 0 1-.168-1.191c.29-1.05.562-2.105.831-3.161.255-1 .5-2.008.764-3.087a21.114 21.114 0 0 1-7.7 1.467c-.861.021-.921.044-.8.925.289 2.157.588 4.314.922 6.465a4.647 4.647 0 0 1-.718 3.513c-.294.424-.613.831-.892 1.264-.339.527-.219.855.389 1.012a8.134 8.134 0 0 0 3.075.062 32.543 32.543 0 0 0 6.6-1.737 1.378 1.378 0 0 0 .751-.406c-.531-.9-1.064-1.8-1.638-2.78m-67.4-65.086c-1.556-.678-3.228-1.23-3.514-3.32a33.838 33.838 0 0 0-7.338 7.087.768.768 0 0 0-.081.738c.457 1.49 1.677 2.159 2.926 2.839a29.954 29.954 0 0 1 6.5-7.509 45.325 45.325 0 0 0-6.2 7.647 24.087 24.087 0 0 0 4.647 1.616c.351.089.483-.1.625-.379a46.042 46.042 0 0 1 3.942-6.655 4.549 4.549 0 0 0 .864-1.275c-.785-.262-1.535-.512-2.374-.789m6.526-7.194c-.159-.364.133-.627.274-.994-.181.037-.295.052-.4.083a32.461 32.461 0 0 0-8.889 4.1 1.076 1.076 0 0 0-.32 1.6 3.3 3.3 0 0 0 .985 1.023 14.934 14.934 0 0 0 3.129 1.429 1.681 1.681 0 0 0 2.4-.669A4.633 4.633 0 0 1 47.96 23.3c-.65.971-1.577 1.72-2.27 2.758a38.443 38.443 0 0 0 4.446.776c.352.044.485-.192.6-.46a31 31 0 0 1 1.881-3.518A23.975 23.975 0 0 1 54.2 20.54a.292.292 0 0 0-.268-.207 11.478 11.478 0 0 1-2.844-.614 3.094 3.094 0 0 1-2.053-1.349m-10.7 20.853a48.528 48.528 0 0 0-1.58 5.239c-.129.531.064.659.513.739a31.641 31.641 0 0 1 3.319.656 4.27 4.27 0 0 0 4.157-.7 1.385 1.385 0 0 0 .652-.982 53.865 53.865 0 0 1 1.043-5.427 18.434 18.434 0 0 0 .537-2.3 65.75 65.75 0 0 1-6.624-1.134c-.36-.088-.456.107-.571.352-.532 1.133-1 2.294-1.447 3.56m43.016-5.385-1.153.476a46.415 46.415 0 0 1 3.915 9.642A14.925 14.925 0 0 0 89 41.528a5.518 5.518 0 0 0 1.413-1.821 1.079 1.079 0 0 0 .048-.905 35.342 35.342 0 0 0-3.546-7.26c-.365-.568-.762-1.116-1.212-1.771a2.629 2.629 0 0 1-.822 1.878c-.366.329-.626.638-.317 1.147l-.466-.424a14.3 14.3 0 0 1-2.752 1.467m-43.973.677a19.75 19.75 0 0 1-2.448-.925c-.327-.163-.5-.067-.657.24-.366.7-.766 1.391-1.141 2.091a41.962 41.962 0 0 0-2.771 6.577c-.111.333-.063.553.322.678.509.165.99.413 1.5.583a32.457 32.457 0 0 0 4.1 1.18 50.158 50.158 0 0 1 3.348-9.755c-.757-.224-1.457-.431-2.246-.669m33.211-4.845-1.294-2.414c-.094-.176-.159-.365-.429-.318-1.6.279-3.219.454-4.838.606-.376.035-.456.222-.358.568.193.687.369 1.379.535 2.073q.679 2.83 1.186 5.7c.073.409.286.52.663.481 1.321-.134 2.645-.237 3.963-.393 1.039-.123 2.07-.308 3.2-.48a56.154 56.154 0 0 0-2.627-5.82M67.4 17.836a1.345 1.345 0 0 0-.976-.782 29.206 29.206 0 0 0-6.7-.931 34.34 34.34 0 0 0-5.824.28 19.291 19.291 0 0 0-3.724.765 1.047 1.047 0 0 0-.721.869c-.065.359.227.577.49.755a3.537 3.537 0 0 0 .733.391 15.145 15.145 0 0 0 3.82.863 33.26 33.26 0 0 0 9.08-.159 7.844 7.844 0 0 0 3.462-1.189c.26-.192.518-.393.362-.862m-20.328 18.1a1.053 1.053 0 0 0 .277-.58q.855-2.914 1.982-5.734c.307-.765.611-1.531.914-2.291a.642.642 0 0 0-.144-.077c-1.529-.225-3.062-.42-4.567-.785-.292-.071-.379.135-.506.309a47.2 47.2 0 0 0-2.829 4.264 41.12 41.12 0 0 0-1.995 3.787 50.011 50.011 0 0 0 6.867 1.107M28.627 52.85c.034.258-.218.618.118.759a14.453 14.453 0 0 0 2.864 1.044.746.746 0 0 0 .076-.165 3.11 3.11 0 0 0 .019-.416 2 2 0 0 1 1.258-2.084c.7-.33 1.35-.757 2.022-1.142a.611.611 0 0 0 .365-.488c.207-1.452.427-2.9.695-4.344.084-.45 0-.646-.447-.758a38.75 38.75 0 0 1-4.2-1.306 5.352 5.352 0 0 0-1.363-.463 37.236 37.236 0 0 0-1.4 9.361m46.691-17.283-.348.078c-1.2.284-1.183.28-.823 1.45a.548.548 0 0 0 .641.45c.615-.022 1.232-.008 1.848 0 1.088.006 1.511.426 1.514 1.517.005 1.928.014 3.855 0 5.783 0 .485.131.624.626.521a57.015 57.015 0 0 0 4.558-1.152c.375-.111.427-.278.318-.651a49.814 49.814 0 0 0-3.541-8.769.45.45 0 0 0-.655-.266c-1.319.442-2.687.7-4.135 1.042M28.587 54.573a26.238 26.238 0 0 0 .871 7.063c.514 2.144.482 2.153 2.515 2.934a13.185 13.185 0 0 0 2.338.727.7.7 0 0 0 .17-.6c.03-2.264.121-4.528 0-6.792-.046-.883-.021-.885-.9-.893-1.353-.013-1.559-.165-1.861-1.481a.56.56 0 0 0-.4-.455c-.762-.285-1.524-.572-2.28-.875-.313-.125-.45-.034-.456.375M28.33 41.87a10.54 10.54 0 0 0 1.579.947 43.718 43.718 0 0 1 4.313-9.485 14.616 14.616 0 0 1-1.9-1.3 3.23 3.23 0 0 1-1.157-1.959 32.093 32.093 0 0 0-4.747 9.027 1.181 1.181 0 0 0 .128.857 5.288 5.288 0 0 0 1.785 1.914m18.32-2.447a42.114 42.114 0 0 0-.95 5.133c.385-.213.646-.352.9-.5 2.8-1.626 5.58-3.28 8.4-4.861a1.456 1.456 0 0 0 .905-1.586c-.041-.417-.129-.615-.578-.606-.555.01-1.112-.017-1.666-.055a408.071 408.071 0 0 1-5.635-.412c-.482-.039-.73.094-.828.594-.144.738-.354 1.463-.551 2.293m-21.686 6.207c-.061.63-.1 1.265-.189 1.891-.4 2.766.074 3.814 2.456 5.293.168.1.34.206.516.3.135.069.268.186.461.074a.9.9 0 0 0 .053-.209 36.805 36.805 0 0 1 1.43-9.372.383.383 0 0 0-.233-.519 7.663 7.663 0 0 1-3.314-2.865 28.173 28.173 0 0 0-1.18 5.412m2.407 17.5A34.017 34.017 0 0 0 34.4 73.637a6.7 6.7 0 0 0 .113-.772q.023-1.991.025-3.983c0-.853-.017-1.706-.027-2.559a.672.672 0 0 0-.613-.735 13.93 13.93 0 0 1-1.977-.64 5.457 5.457 0 0 0-1.616-.521 39.369 39.369 0 0 0 1.5 3.962.184.184 0 0 1-.216-.119 17.186 17.186 0 0 1-1.581-3.711c-.046-.172-.063-.381-.226-.471-.871-.485-1.718-1.009-2.589-1.539l.178.581m.1-.963a10.034 10.034 0 0 0 2.09 1.335.714.714 0 0 0 .015-.179 28.779 28.779 0 0 1-1.2-8.788.889.889 0 0 0-.588-.915 7.794 7.794 0 0 1-3.007-2.407 2.987 2.987 0 0 0 .043 1.074 32.109 32.109 0 0 0 1.685 8.543 2.264 2.264 0 0 0 .961 1.334M71.143 37.54h2.806c-.164-.51-.283-.882-.4-1.253a.424.424 0 0 0-.557-.3c-2.267.408-4.561.593-6.853.783-.463.038-.587.194-.48.63a27.846 27.846 0 0 1 .45 3.177 1.161 1.161 0 0 0 1.216 1.133 3.972 3.972 0 0 0 .051-1 10.031 10.031 0 0 1 .08-1.9A1.417 1.417 0 0 1 69 37.547c.675-.008 1.351 0 2.146 0m-10.072.8 4.764 2.689c-.189-1.3-.361-2.426-.515-3.557-.064-.467-.3-.606-.764-.58-2.434.133-4.87.225-7.308.215-1.092 0-1.093 0-1.038 1.087a.7.7 0 0 0 .048.16.638.638 0 0 0 .479-.22 3.087 3.087 0 0 1 3.952-.02c.1.066.2.122.383.226m-24.368 7.204c-.266.044-.261.273-.3.457-.138.739-.266 1.481-.391 2.223-.116.688-.224 1.378-.36 2.22l6.427-3.773-.016-.157a74.39 74.39 0 0 1-5.364-.97m-23.428 27.7a3.687 3.687 0 0 0 1.829 1.214l-1.366-2.522c-.457.359-.698.709-.459 1.304z"/>
    <path data-name="Path 3370" d="M104.877 77.524a2.594 2.594 0 1 1 3.925-2.929 2.643 2.643 0 0 1-1.62 3.234 2.485 2.485 0 0 1-2.306-.3m2.539-.42a2.108 2.108 0 0 0 .828-2.4 1.989 1.989 0 0 0-2.54-1.25 1.958 1.958 0 0 0-1.313 2.389c.445 1.391 1.467 1.846 3.026 1.251z"/>
    <path data-name="Path 3371" d="M95.28 40.067c.04-.065.091-.113.1-.108.88.7 1.71 0 2.555-.105.468-.058.916-.266 1.383-.355.5-.1.957-.186.916-.893a4.208 4.208 0 0 1 .689 2.038c-.516-.677-1.108-.4-1.694-.245-.9.233-1.808.449-2.713.672-.38.094-.686.248-.566.728.108.435.335.721.838.63.585-.106 1.167-.229 1.755-.318.3-.046.3-.331.4-.518.693.446.824.847.44 1.225a.4.4 0 0 0 .041.109c.743.994.531 1.565-.687 1.824-.368.079-.741.137-1.113.2a1.6 1.6 0 0 0-1.29.668c-.261-1.918-.634-3.72-1.055-5.551m1.9 4.181c.566-.092 1.134-.174 1.7-.282.188-.036.4-.1.372-.377a.813.813 0 0 0-.924-.706c-.469.075-.935.176-1.406.221s-.583.323-.549.735c.041.485.331.527.808.408z"/>
    <path data-name="Path 3372" d="M19.531 68.863a.682.682 0 0 0 .891.122q1.532-.8 3.087-1.553c.51-.248.485-.6.292-1.036-.2-.455-.518-.4-.885-.244-.4.174-.811.325-1.211.5-.36.157-.78.264-.718.812-.779-.346-.958-.66-.712-1.16a.533.533 0 0 0-.07-.092c-.93-.817-.862-1.342.263-1.892.374-.183.763-.337 1.148-.5s.793-.285.929-.812c.941 1.7 1.5 3.556 2.5 5.264-.843-.671-1.421.021-2.056.305-.543.243-1.068.528-1.6.8-.512.268-1.17.417-.965 1.307l-.221-.011c-.284-.583-.568-1.165-.845-1.751a.416.416 0 0 1 .172-.07m.96-3.73c-.221.138-.305.3-.111.529.224.269.46.519.85.379.464-.166.921-.355 1.377-.542.356-.146.642-.339.449-.8s-.534-.47-.927-.3c-.525.235-1.047.468-1.638.745z"/>
    <path data-name="Path 3373" d="M91.877 23.562c-.761.641-1.5 1.244-2.216 1.874-.411.362-.981.666-.643 1.428l-.157.027-1.315-1.5c1.138.419 1.471-.65 2.123-1.044.114-.069.1-.206.024-.318-.034-.049-.078-.091-.113-.138-1-1.34-1.26-1.339-2.418-.135-.32.333.056.58 0 .868a3.541 3.541 0 0 1-1.436-1.506c.964.375 1.367-.383 1.915-.838.519-.431 1.024-.881 1.531-1.327.353-.311.834-.577.428-1.233a4.88 4.88 0 0 1 1.422 1.526c-1.109-.4-1.408.657-2.2 1l1.305 1.54c1.081-.494 1.525-1.095 1.364-1.968.7.405.951 1.083 1.49 1.577-.415.182-.798-.254-1.104.167z"/>
    <path data-name="Path 3374" d="M96.466 32.359a1.225 1.225 0 0 1-.744.977c-.4.251-.833.46-1.252.685-.352.189-.728.355-.694.895l-.211.017-2.5-4.909a3.156 3.156 0 0 0 2.98-1.41c.707.2.911.506.656.989 1.016.852 1.036.9.669 1.61.393.329.942.525 1.1 1.146m-4.19-.651a.433.433 0 0 0 .623.143c.511-.264 1.034-.509 1.524-.807.225-.137.612-.3.358-.678-.232-.345-.509-.689-1.024-.379a9.052 9.052 0 0 1-1.212.633c-.549.225-.609.554-.269 1.088m3.144.106a.6.6 0 0 0-.805-.07c-.44.264-.9.5-1.348.744-.4.213-.358.515-.2.856s.418.376.732.215c.509-.261 1.021-.519 1.531-.779.463-.236.566-.531.086-.966z"/>
    <path data-name="Path 3375" d="m76.557 16.494-1.3-.7c1.333-.422 1.317-1.729 1.946-2.491-.015-.341-.391-.316-.37-.635.026-.1.151-.125.266-.087.362.12.525-.082.717-.349.638-.889 1.491-1 2.09-.307a.874.874 0 0 1 .235.6c0 .221-.086.4-.327.425-.219.025-.321-.13-.372-.314-.075-.274 0-.684-.392-.71-.361-.025-.468.381-.656.624a2.175 2.175 0 0 0-.2.4c.1.361.647.323.619.75-.026.021-.042.046-.056.044-.955-.075-.955-.076-1.427.835-.146.282-.294.564-.434.849a.757.757 0 0 0 .381 1.177c.48.234.788-.007 1.019-.422s.457-.84.726-1.232a.576.576 0 0 0-.046-.854 1.121 1.121 0 0 1 1.053.011c.283.1.152.311.046.487-.349.579-.7 1.156-1.045 1.737a1.656 1.656 0 0 0-.345 1.352c-.7-.395-1.393-.782-2.128-1.19z"/>
    <path data-name="Path 3376" d="M24.996 28.47c-.1.172-.182.311-.268.444a.962.962 0 0 0 .237 1.461c.275.24.479-.016.807-.023a4.083 4.083 0 0 1-.758 1.308c-.739-1.67-1.987-2.891-2.908-4.331-.151-.236-.432-.435-.284-.8 1.939.226 3.783 1.017 5.772.894a2.5 2.5 0 0 1-1.076 1.492c0-.389-.114-.66-.564-.711-.36-.041-.707-.193-.958.269m-1.231-.738-.8-.116a8.924 8.924 0 0 0 1.025 1.4 1.924 1.924 0 0 0 .644-.95c-.213-.292-.538-.191-.869-.337z"/>
    <path data-name="Path 3377" d="M73.037 10.67c.475-.08.612-.612 1.083-.69.146.419-.286.7-.2 1.1.143.178.553.166.468.561-.248.173-.445-.128-.764-.045-.252.648-.534 1.342-.79 2.045-.182.5.3.378.56.523a.68.68 0 0 1-.9.419.646.646 0 0 1-.44-.9c.232-.675.508-1.335.747-2.008.06-.168.227-.367 0-.538a.383.383 0 0 0-.535.053c-.194.172-.366.075-.52-.078-.276-.274-.545-.2-.652.12-.271.813-.869 1.585-.355 2.581-.578.024-1-.306-1.546-.337a4.656 4.656 0 0 0 1.168-3.263c.464-.245.731-.2 1.081.271.341-.144.674-.226.947.15.17.231.401.066.648.036z"/>
    <path data-name="Path 3378" d="M100.322 50.592a1.358 1.358 0 0 1-1.416 1.214 3.671 3.671 0 0 1-1.182-.062c-.961-.3-1.245-.784-1.242-2.132a1.2 1.2 0 0 0-1.523.565 10.641 10.641 0 0 1-.033-1.816c.562.766 1.334.475 2.024.507.613.028 1.229 0 1.843.019a1.151 1.151 0 0 0 1.068-.323c.5.573.529.855.1 1.194a2.1 2.1 0 0 1 .359.835m-.945-.831a6.575 6.575 0 0 0-1.938-.087c-.3 0-.448.219-.526.483a.541.541 0 0 0 .24.618 1.823 1.823 0 0 0 1.687.268c.747-.213.869-.461.538-1.283z"/>
    <path data-name="Path 3379" d="M86.094 17.872a.776.776 0 0 0 .186-1.026 1.85 1.85 0 0 1 1.114.365c.038.244-.114.358-.227.492l-2.3 2.736a1 1 0 0 0-.219 1.286c-.53-.252-1.036-.076-1.231-.641-.056-.162-.234-.122-.354-.178a1.329 1.329 0 0 1-.809-1.493 2.484 2.484 0 0 1 1.981-1.9 1.52 1.52 0 0 1 1.457.735c.247 0 .25-.236.4-.372m-1.079 1.25c.235-.315.344-.627 0-.947s-.684-.207-1.018.026a2.524 2.524 0 0 0-1 1.43.7.7 0 0 0 .4.834c.31.193.524.02.712-.208.293-.358.571-.712.908-1.139z"/>
    <path data-name="Path 3380" d="M62.013 8.378c.815-1.557 2.018-1.966 3.52-1.179.3.156.423-.1.69-.106v1.84c-.4-.164-.4-.476-.49-.714a1.431 1.431 0 0 0-2.414-.48 3.722 3.722 0 0 0-.511 3.278 1.549 1.549 0 0 0 2.407.527c.183-.151.32-.415.641-.347a2.013 2.013 0 0 1-2.21 1.19 2.654 2.654 0 0 1-1.832-3.464c.045-.171.119-.335.199-.545z"/>
    <path data-name="Path 3381" d="M20.661 54.26c-.036.455.24.853.044 1.271a3.237 3.237 0 0 0-3.207.217c-.683-.494-.749-.8-.249-1.183-.005-.179-.173-.251-.258-.377a.837.837 0 0 1 .451-1.37 8.87 8.87 0 0 1 1.816-.269c.381-.057.808-.017 1.045-.484l.154.077c.068.687.135 1.375.2 2.117m-1.421.218a4.646 4.646 0 0 0 .7-.094c.4-.113.307-.453.289-.742a.385.385 0 0 0-.477-.4q-1 .114-2 .248c-.25.034-.311.191-.262.431.11.538.362.712.933.628.241-.033.478-.046.82-.07z"/>
    <path data-name="Path 3382" d="M17.984 39.532c-.037-.417.306-.319.5-.43-.044-.14-.087-.271-.125-.4a.875.875 0 0 1 1.071-1.2 14.063 14.063 0 0 1 1.444.338 1.59 1.59 0 0 0 1.462-.056c-.212 1.219-.638 2.244-.93 3.4-.694-.907-1.711-.824-2.552-1.159a.281.281 0 0 0-.231.011c-.713.534-.6-.07-.639-.506m1.112-.248c.618.2 1.235.407 1.856.6.388.119.529-.155.643-.445s.09-.558-.258-.666c-.621-.193-1.241-.392-1.873-.54-.383-.09-.623.07-.516.523a3.073 3.073 0 0 0 .149.531z"/>
    <path data-name="Path 3383" d="M17.651 51.031c.258.084.5.163.347.46a.448.448 0 0 1-.6.227 1.283 1.283 0 0 1-.815-1.266 1.023 1.023 0 0 1 .77-1.07 6.629 6.629 0 0 1 1.835-.118c.322-.009.631.013.5-.479.833.327.976.76.461 1.262-.034.157.073.261.148.373a.774.774 0 0 1-.093 1.162 1.1 1.1 0 0 1-1.37-.013 3.354 3.354 0 0 1-.75-1.064c-.112-.226-.2-.5-.561-.4-.232.065-.409.179-.422.434-.018.349.271.394.554.49m1.644.024c.233 0 .45-.023.477-.318a.568.568 0 0 0-.251-.624 1 1 0 0 0-1.076.116c.193.358.339.705.846.828z"/>
    <path data-name="Path 3384" d="M51.232 12.095c.2.163.395.359.054.447-.976.254-1.967.453-2.953.67-.026.006-.064-.039-.1-.061a3.254 3.254 0 0 0-.7-3.111c.135-.318.466-.448.631-.674.314-.055.257.321.486.324a.341.341 0 0 0 .106-.047c.932-.9 1.526-.72 1.9.555a5.948 5.948 0 0 0 .575 1.9m-2.346-1.028c.072.327.14.655.216.981.091.393.286.659.744.543a.574.574 0 0 0 .442-.772 9.061 9.061 0 0 0-.4-1.6c-.089-.21-.116-.526-.424-.488a.742.742 0 0 0-.652.6 2.337 2.337 0 0 0 .075.732z"/>
    <path data-name="Path 3385" d="M23.292 35.219c.069.443-.177.613-.525.7.03.13.048.225.074.317a.868.868 0 0 1-.45 1.06.928.928 0 0 1-1.139-.235 2.326 2.326 0 0 1-.527-1.48c-.033-.334-.108-.646-.555-.606a.467.467 0 0 0-.418.288c-.083.2.031.341.186.452.08.058.171.1.25.161a.35.35 0 0 1 .108.518c-.142.2-.343.15-.531.048a1.1 1.1 0 0 1-.471-1.29 1.076 1.076 0 0 1 1.516-.819c.429.152.858.306 1.28.476.339.136.669.31.857-.176.3.1.322.317.345.583m-2.11.476a1.233 1.233 0 0 0 .344.739c.254.212.553.314.725-.074a.552.552 0 0 0-.116-.708 1.317 1.317 0 0 0-.927-.3 1.033 1.033 0 0 0-.026.346z"/>
    <path data-name="Path 3386" d="m39.592 14.456.416.7c.3.5.3.5.822.422-.022.789-.328 1.072-1 .9-.061.091-.123.191-.192.285-.269.363-.566.7-1.08.513a1.236 1.236 0 0 1-.638-1.346 3.493 3.493 0 0 1 .688-1.17c.25-.343.014-.555-.209-.754s-.446-.055-.632.1c-.242.2-.045.383.028.58s.169.449-.127.55c-.248.084-.406-.078-.515-.292a1.059 1.059 0 0 1 .5-1.319c.588-.4 1.062-.4 1.431.044a7.539 7.539 0 0 1 .505.785m-.041 1.476a2.132 2.132 0 0 0-.558-.968c-.312.342-.589.661-.481 1.112.053.221.193.471.47.475.334.006.451-.274.572-.617z"/>
    <path data-name="Path 3387" d="M32.758 22.052a1.586 1.586 0 0 1-2.063-.1 2.037 2.037 0 0 1-.917-2.052 1.438 1.438 0 0 1 1.877-1.137c1.125.305 2.406 2.308 1.1 3.289m-.015-1.15a2.624 2.624 0 0 0-1.4-1.456.672.672 0 0 0-.962.908 2.327 2.327 0 0 0 1.454 1.31c.589.183.888-.058.911-.762z"/>
    <path data-name="Path 3388" d="M17.715 41.585a2.217 2.217 0 0 1 2.832.032 1.4 1.4 0 0 1 .483 1.789 1.859 1.859 0 0 1-1.832.953 2.709 2.709 0 0 1-1.43-.685 1.389 1.389 0 0 1-.052-2.089m2.652.621a2.587 2.587 0 0 0-2.117-.2c-.637.232-.7.745-.176 1.166a2.306 2.306 0 0 0 1.818.33c.721-.09.916-.567.473-1.298z"/>
    <path data-name="Path 3389" d="M90.384 26.34a2.615 2.615 0 0 1 1.152-.555 1.482 1.482 0 0 1 1.574.592 1.324 1.324 0 0 1 .028 1.658 2.516 2.516 0 0 1-1.949 1.207 1.447 1.447 0 0 1-1.488-1.9 1.98 1.98 0 0 1 .683-1m.709 2.313a3.017 3.017 0 0 0 1.589-1.265c.153-.242.274-.491.049-.76a.73.73 0 0 0-.838-.29 2.685 2.685 0 0 0-1.554 1.295c-.303.598-.039.994.755 1.018z"/>
    <path data-name="Path 3390" d="M18.52 61.201c-.929-.875-.912-1.774.005-2.348.365-.229.621-.224.728.273.087.405.219.8.335 1.2.1.355.3.435.619.221a1.277 1.277 0 0 0 .656-1.007c.025-.477-.339-.629-.689-.787-.109-.049-.216-.1-.232-.241a1.384 1.384 0 0 1 1.546.483 1.305 1.305 0 0 1-.117 1.6 2.472 2.472 0 0 1-2.85.609m.557-.908c-.078-.21-.054-.478-.322-.589a.473.473 0 0 0-.327.614.655.655 0 0 0 .658.534c.144-.186.049-.334-.01-.567z"/>
    <path data-name="Path 3391" d="M44.41 12.824a3.692 3.692 0 0 1-.171-.49 1.786 1.786 0 0 1 .944-2.094 1.608 1.608 0 0 1 1.994.962 2.1 2.1 0 0 1 .105 1.994 1.381 1.381 0 0 1-2.184.492 2.268 2.268 0 0 1-.688-.865m2.276-.746a2.684 2.684 0 0 0-.708-1.221.616.616 0 0 0-.658-.168.635.635 0 0 0-.439.585 2.424 2.424 0 0 0 .864 2.059.639.639 0 0 0 1.08-.467 1.6 1.6 0 0 0-.139-.792z"/>
    <path data-name="Path 3392" d="M57.824 11.136c.006-.547-.015-1.045.012-1.54s.008-.956-.606-1.059c.016-.414.537-.2.571-.546a3.489 3.489 0 0 1 .13-.819 1.251 1.251 0 0 1 1.823-.734c.246.174.512.421.26.733-.235.29-.452.034-.639-.148-.155-.151-.321-.362-.557-.215-.354.221-.3.619-.321.967a.373.373 0 0 0 .373.444c.192.011.415-.017.434.272-.749.361-.749.361-.738 1.291 0 .258.018.517 0 .775-.027.51-.032 1 .634 1.2a4.762 4.762 0 0 1-1.793.091c-.038-.392.419-.366.417-.712z"/>
    <path data-name="Path 3393" d="M96.828 34.438c1.1.592 1.272 1.591.452 2.319-.348.309-.6.258-.775-.16-.206-.492-.4-.99-.592-1.484a1.305 1.305 0 0 0-1.075 1.015c-.1.744.534.816 1.016 1.05-.218.423-.544.27-.829.2a1.254 1.254 0 0 1-.732-2.078 2.39 2.39 0 0 1 2.535-.865m.43 1.134c-.038-.523-.344-.674-.854-.665a1.974 1.974 0 0 0 .457 1.125c.248-.037.307-.212.397-.453z"/>
    <path data-name="Path 3394" d="M97.113 54.987c-.731-.535-.931-.99-.742-1.632a1.642 1.642 0 0 1 1.491-1 1.985 1.985 0 0 1 2.291 1.346 1.35 1.35 0 0 1-1.314 1.563c-.3-.013-.364-.2-.349-.441.025-.414.056-.829.105-1.241.063-.531-.171-.615-.626-.477-.96.29-1.147.888-.488 1.624.08.089.17.17.138.314-.166.177-.317.056-.506-.053m2.517-.884c.151-.5 0-.807-.567-.922a2.434 2.434 0 0 0 .034 1.224.566.566 0 0 0 .533-.305z"/>
    <path data-name="Path 3395" d="M54.906 12.178a2.113 2.113 0 0 1-1.364-2.746 1.62 1.62 0 0 1 1.415-1.19 1.49 1.49 0 0 1 1.439.969 2.247 2.247 0 0 1-.546 2.7 1.418 1.418 0 0 1-.944.263m.995-1.424a2.975 2.975 0 0 0-.239-1.446c-.165-.365-.411-.66-.851-.586s-.576.445-.621.836a2.539 2.539 0 0 0 .251 1.441c.168.339.366.709.816.664s.585-.406.644-.906z"/>
    <path data-name="Path 3396" d="M98.182 62.071a1.459 1.459 0 0 1-1.151 2.083 2.251 2.251 0 0 1-2.462-1.32 1.346 1.346 0 0 1 .313-1.435 1.82 1.82 0 0 1 1.933-.39 2.366 2.366 0 0 1 1.368 1.059m-2.886.854a2.433 2.433 0 0 0 1.832.5.762.762 0 0 0 .736-.58.642.642 0 0 0-.378-.731 2.611 2.611 0 0 0-1.806-.413c-.719.11-.892.568-.386 1.226z"/>
    <path data-name="Path 3397" d="M82.994 16.7c-.022.124-.041.2-.057.279-.15.707-.216.735-.829.345l-1.273-.81a1.246 1.246 0 0 0-.26 1.48c.318.664.859.45 1.419.218-.054.6-.476.672-.794.769a1.067 1.067 0 0 1-1.187-.343 1.42 1.42 0 0 1-.305-1.541 2.963 2.963 0 0 1 1.245-1.545 1.35 1.35 0 0 1 2.043 1.149m-1.8-.63c.173.42.557.538.938.7a.561.561 0 0 0-.056-.817c-.281-.258-.576-.182-.883.116z"/>
    <path data-name="Path 3398" d="M69.138 12.283a3.714 3.714 0 0 1-.4.414c-.377.294-.761.609-1.289.364a1.527 1.527 0 0 1-.921-1.29 2.646 2.646 0 0 1 .6-2 1.3 1.3 0 0 1 1.55-.411 1.4 1.4 0 0 1 .851 1.368c-.028.4-.3.339-.565.306a7.547 7.547 0 0 0-1.606-.267.978.978 0 0 0-.074.723c.136.864.739 1.111 1.516.632.326-.2.326-.2.337.16m-1.029-1.852c.208.034.422.128.641-.092a.626.626 0 0 0-.686-.623.472.472 0 0 0-.49.36c-.061.353.271.248.536.356z"/>
    <path data-name="Path 3399" d="M96.578 57.316c.1.4.451.59.651 1.017a1.425 1.425 0 0 1-1.215-.788 1.029 1.029 0 0 1 .157-1.361 1.767 1.767 0 0 1 1.841-.55 2.03 2.03 0 0 1 1.678 1.422 1.22 1.22 0 0 1-.754 1.446c-.3.115-.568.086-.686-.244s.142-.393.381-.472c.267-.088.652-.071.653-.481s-.308-.631-.655-.76a2.384 2.384 0 0 0-1.519-.019.685.685 0 0 0-.532.79z"/>
    <path data-name="Path 3400" d="M29.125 22.429a4.516 4.516 0 0 1 .629-.133 1.148 1.148 0 0 1 1.112 1.495 1.584 1.584 0 0 1-.538.694c-.673.539-.96.462-1.4-.385.192-.185.366-.013.537.039a.8.8 0 0 0 .632-.033.534.534 0 0 0 .268-.707c-.1-.295-.338-.356-.629-.265s-.605.19-.914.261a1.14 1.14 0 0 1-1.378-.633 1.022 1.022 0 0 1 .367-1.263c.678-.648.992-.575 1.387.326-.237.145-.4-.082-.6-.116a.657.657 0 0 0-.68.262.366.366 0 0 0 0 .49.538.538 0 0 0 .649.132z"/>
    <path data-name="Path 3401" d="M34.591 16.598c.193.239.191.439-.013.608s-.372.064-.54-.058c-.224-.163-.449-.271-.69-.036a.651.651 0 0 0-.149.762 2.153 2.153 0 0 0 .963 1.164.848.848 0 0 0 .954.029.8.8 0 0 0 .323-.891c-.029-.114-.066-.234.06-.322a1.154 1.154 0 0 1 .318 1.4 1.27 1.27 0 0 1-1.4.769 2.465 2.465 0 0 1-1.732-2.685 1.237 1.237 0 0 1 1.906-.74z"/>
    <path data-name="Path 3402" d="M27.343 26.244a1.327 1.327 0 0 0 .746.071.581.581 0 0 0 .464-.667c-.052-.326-.351-.364-.613-.308a8.872 8.872 0 0 0-1.02.308 1.016 1.016 0 0 1-1.32-.458.941.941 0 0 1 .147-1.288c.64-.718 1-.691 1.454.128-.166.166-.334.059-.486-.013-.369-.175-.548.091-.746.308a.28.28 0 0 0-.024.422.652.652 0 0 0 .72.119c.284-.084.562-.192.838-.3a.991.991 0 0 1 1.23.287 1.077 1.077 0 0 1 .155 1.27 2.27 2.27 0 0 1-.809.856c-.4.261-.551-.242-.821-.383-.136-.072-.31-.276.085-.352z"/>
    <path data-name="Path 3403" d="M96.353 47.166a5.585 5.585 0 0 1-.017-.408c0-.969.189-1.112 1.182-.9.024.325-.3.321-.453.472-.282.277-.458.6-.175.939.257.308.576.241.793-.085.2-.3.357-.618.531-.93a1.04 1.04 0 0 1 1.248-.57 1.051 1.051 0 0 1 .752 1.091c.054.931-.227 1.152-1.1.843-.029-.259.191-.256.343-.318a.51.51 0 0 0 .333-.62c-.035-.2-.11-.4-.334-.445-.3-.053-.407.206-.533.4a7.044 7.044 0 0 0-.369.679 1.179 1.179 0 0 1-1.14.8 1.147 1.147 0 0 1-1.061-.948z"/>
    <path data-name="Path 3404" d="M95.618 68.359c-.152-.477-.429-.518-.789-.294-.3.189-.608.377-.908.571a.9.9 0 0 1-1.106-.007 1.119 1.119 0 0 1-.514-1.125 1.644 1.644 0 0 1 .7-1.141c.4-.267.741.136 1.062.394-.173.28-.413.14-.611.156a.754.754 0 0 0-.713.536.442.442 0 0 0 .174.476.389.389 0 0 0 .493.056c.295-.164.587-.333.885-.492a1.08 1.08 0 0 1 1.5.181c.448.481.268.953-.04 1.406-.147.216-.23.562-.6.485a.816.816 0 0 1-.725-.6c.571.105 1.061.103 1.192-.602z"/>
    <path data-name="Path 3405" d="M20.646 31.956c.742.344 1.437.682 2.144.992.456.2.9.559 1.539.006a5.709 5.709 0 0 1-.654 1.568c-.671-.995-1.8-1.087-2.672-1.619a8.627 8.627 0 0 0-.919-.419c-.551-.252-.551-.253-1.184-.056-.114-.366.051-.722-.021-1.147a4.934 4.934 0 0 1 1.767.675z"/>
    <path data-name="Path 3406" d="M17.858 56.104c.073.076.124.122.134.176.166.922.165.921 1.078.746a5.485 5.485 0 0 1 .7-.111 1.072 1.072 0 0 0 1.018-.7 5.525 5.525 0 0 1 .448 1.718 3.422 3.422 0 0 0-3.3.44c-.7-.53-.763-.74-.285-1.142-.279-.236-.673-.45-.494-.895.102-.271.388-.301.701-.232z"/>
    <path data-name="Path 3407" d="M18.287 48.194c-.43.037-.886-.3-1.155.249-.046.094-.224.071-.263 0-.244-.458-.728-.632-1.1-.894.057-.253.219-.215.347-.218.336-.008.7.055.7-.471a.223.223 0 0 1 .25-.205.228.228 0 0 1 .217.239c.021.5.372.542.749.544h1.705c.234-.216 0-.444.179-.647a.716.716 0 0 1 .6.772c.023.419-.258.614-.635.632-.51.023-1.028.002-1.594-.001z"/>
    <path data-name="Path 3408" d="M20.041 62.488a8.7 8.7 0 0 0 1.513-.555c.157-.255-.159-.431-.026-.683.408-.131.591.173.737.464a.576.576 0 0 1-.282.806 6.812 6.812 0 0 1-1.548.6c-.472.142-.974.218-1.107.985-.44-.621-1.148-.376-1.6-.768.194-.434.653-.244.877-.483.124-.249-.207-.5.1-.8.333.382.678.896 1.336.434z"/>
    <path data-name="Path 3409" d="M96.123 67.204c-.369-.147-.325-.307-.113-.542.393-.434.357-.638-.167-.9-.479-.235-.989-.405-1.472-.633-.333-.157-.556.1-.973.216l.648-1.64a3.178 3.178 0 0 0 3.059 1.36c.227.749.147.994-.373 1.141.153.895.067 1.048-.609.998z"/>
    <path data-name="Path 3410" d="M96.853 59.902a1.43 1.43 0 0 0-.768-.091c-.252.144-.072.4-.244.584a.752.752 0 0 1-.47-.933.692.692 0 0 1 .918-.438c.6.147 1.2.27 1.783.45.351.108.639.163.87-.4.273.685.8 1.015 1.1 1.563-.419.142-.668-.191-.968-.148-.276.09-.111.545-.532.539.013-1.175-1.018-.832-1.689-1.126z"/>
    <path data-name="Path 3411" d="M41.323 12.023c.128.415-.3.35-.454.609a10.239 10.239 0 0 0 .987 2.151c.235.446.487-.162.786-.067a.767.767 0 0 1-.546.911.6.6 0 0 1-.787-.357q-.438-.845-.842-1.707c-.151-.321-.249-.684-.815-.581a6.33 6.33 0 0 0 .361-1.709c.358.424.571 1.048 1.31.75z"/>
    <path data-name="Path 3412" d="M18.837 45.947c-.552.1-1.115-.328-1.535.221a1.493 1.493 0 0 1-.365-1.121c1.24-.162 2.487.542 3.813-.037l-.174 1.584a2.112 2.112 0 0 0-1.739-.647z"/>
    <path data-name="Path 3413" d="M75.586 12.967c-.2.436-.379.835-.573 1.225a1.665 1.665 0 0 0-.05 1.455 5.843 5.843 0 0 1-1.524-.765c.895-.44 1.683-2.273 1.339-3 .071-.137.2-.1.314-.1.879.023.942.122.6.923-.033.072-.059.148-.106.262z"/>
    <path data-name="Path 3414" d="M37.041 18.53c-.153.043-.246.005-.235-.121.089-1.035-.745-1.6-1.2-2.356-.125-.208-.421-.072-.609-.242a.784.784 0 0 1 .068-.205c.563-.838.612-.838 1.176.014.284.428.568.856.844 1.29.231.364.433.755.986.8-.267.428-.702.529-1.03.82z"/>
    <path data-name="Path 3415" d="M43.363 12.72c.123.3.236.551.328.812.14.4.291.775.844.871a3.588 3.588 0 0 1-1.346.685 3.744 3.744 0 0 0-1.337-3.146c.04-.233.339-.331.517-.53.207-.231.384-.142.494.115.163.381.321.765.5 1.193z"/>
    <path data-name="Path 3416" d="M81.085 12.708c0 .343-.149.518-.447.542a.314.314 0 0 1-.322-.211.486.486 0 0 1 .161-.53c.267-.263.45-.091.608.199z"/>
    <path data-name="Path 3417" d="M15.134 44.961c.3-.236.575-.293.734.089a.4.4 0 0 1-.119.486.4.4 0 0 1-.449.025.434.434 0 0 1-.166-.6z"/>
    <path data-name="Path 3418" d="M41.968 10.462a.473.473 0 0 1-.458-.692.372.372 0 0 1 .468-.129.406.406 0 0 1 .247.424.392.392 0 0 1-.257.397z"/>
    <path data-name="Path 3419" d="M75.965 10.277c.228-.227.438-.269.635-.035a.407.407 0 0 1 0 .5.333.333 0 0 1-.456.154c-.273-.113-.325-.323-.179-.619z"/>
    <path data-name="Path 3420" d="M34.349 14.143c-.161-.213-.189-.395-.013-.562a.368.368 0 0 1 .439-.071c.2.1.432.225.311.484-.143.304-.42.324-.737.149z"/>
    <path data-name="Path 3421" d="M56.89 62.52a29.063 29.063 0 0 1 4.861-8.612c.856-1.144 1.782-2.236 2.677-3.351.1-.121.178-.29.373-.237s.191.229.236.381q.472 1.6.953 3.193c.077.257.13.469-.146.679a17.561 17.561 0 0 0-4.769 5.8 54.942 54.942 0 0 0-3.505 8.2c-.2.592-.5.867-1.116.753a.777.777 0 0 0-.238 0 1.513 1.513 0 0 1-1.928-1.183 11.945 11.945 0 0 0-2.985-3.974c-.384-.4-.577-.648-.071-1.131a3.624 3.624 0 0 0 .743-1.794c.154-.575.264-.588.747-.216a10.143 10.143 0 0 1 2.8 3.585c.1.192.2.382.346.654a29.217 29.217 0 0 0 1.022-2.747z"/>
    <path data-name="Path 3422" d="M52.138 85.09c.063-1.761.124-3.467.178-5.172.019-.6.044-1.192.022-1.786-.022-.579.191-.894.794-.931.334-.021.665-.1 1-.148.423-.061.587.277.784.538.815 1.073 1.618 2.154 2.54 3.384v-1.053c.007-.933.019-1.866.024-2.8 0-.454.182-.7.679-.685a8.377 8.377 0 0 0 1-.1c.339-.033.514.092.512.467q-.025 4.2-.03 8.4a.561.561 0 0 1-.53.641c-1.423.3-1.42.315-2.2-.928-.74-1.172-1.435-2.374-2.355-3.638-.047.848-.1 1.541-.122 2.235-.029.813-.05 1.628-.045 2.441 0 .52-.166.828-.731.867a6.17 6.17 0 0 0-1.053.187c-.395.1-.5-.086-.5-.432.013-.478.019-.955.033-1.487z"/>
    <path data-name="Path 3423" d="M85.148 83.507c-.233-.014-.412-.021-.59-.035-1.139-.089-1.143-.089-1.2-1.26a16.837 16.837 0 0 1-.02-1.31c.01-.34-.119-.544-.464-.55-.67-.012-1.341 0-2.068 0 0 .793-.042 1.64.016 2.48.035.51-.114.682-.607.674-1.884-.03-1.549.343-1.669-1.541-.14-2.2-.014-4.406-.173-6.6-.07-.975-.025-1.013.941-1.04 1.563-.045 1.3-.056 1.329 1.279.012.615.023 1.231.013 1.846-.006.372.131.549.521.54.516-.012 1.033 0 1.548.016.36.013.5-.139.49-.494-.013-.873.007-1.747-.01-2.62-.008-.4.122-.563.545-.572 1.678-.033 1.689-.044 1.679 1.619-.013 2.283.087 4.561.225 6.838.019.318.161.768-.506.73z"/>
    <path data-name="Path 3424" d="M63.102 84.451a.9.9 0 0 1-.952.906c-.374.023-.742.13-1.115.179-.354.047-.542-.064-.406-.47.989-2.955 1.883-5.942 3.029-8.844a.874.874 0 0 1 .837-.614c1.447-.132 1.456-.145 1.992 1.192q1.35 3.372 2.676 6.754c.254.647.193.73-.5.851a.9.9 0 0 1-.177.027c-.478-.014-.973.305-1.4.109-.471-.215-.388-.824-.56-1.253-.1-.257-.249-.409-.528-.375-.747.093-1.494.191-2.239.3a.489.489 0 0 0-.4.4c-.074.268-.161.532-.258.842m1.517-5.192-.458 1.627c.419-.037.731-.05 1.038-.1.2-.03.416-.122.342-.381a6.181 6.181 0 0 0-.656-1.674c-.183.133-.18.303-.266.528z"/>
    <path data-name="Path 3425" d="M70.504 81.785a5.359 5.359 0 0 1 1.448-6.735 3.469 3.469 0 0 1 5.072.813c.228.325.229.533-.1.793-.433.339-.818.74-1.21 1.1a.912.912 0 0 1-.505-.343 1.6 1.6 0 0 0-2.748.54 2.794 2.794 0 0 0 .128 2.578 1.589 1.589 0 0 0 2.724.293c.42-.491.717-.546 1.119-.054a1.473 1.473 0 0 0 .228.191c.96.775.981.8.107 1.692-1.856 1.902-4.722 1.988-6.263-.868z"/>
    <path data-name="Path 3426" d="M31.438 84.745c-.687.08-.955.41-.988 1.19-.048 1.13-.1 2.261-.116 3.391-.005.451-.147.65-.616.648-1.708-.007-1.487.37-1.494-1.411s.017-3.535 0-5.3c0-.443.122-.672.577-.7q.624-.037 1.245-.115c.408-.051.464.27.574.59a2.314 2.314 0 0 1 1.73-1 1.642 1.642 0 0 1 1.68 1.236 5.244 5.244 0 0 1 .2 1.767c-.071 1.328-.142 2.656-.178 3.985-.013.478-.136.7-.666.75-1.924.186-1.535.125-1.538-1.385 0-.872.076-1.745.1-2.617a.944.944 0 0 0-.51-1.029z"/>
    <path data-name="Path 3427" d="M45.177 85.038c-1.016.194-1.983.375-2.946.555.147.879.715 1.194 1.4.831a1.414 1.414 0 0 0 .476-.349c.39-.516.712-.475 1.131 0 .567.639.616.683.068 1.327a3.5 3.5 0 0 1-2.577 1.4c-1.571.078-2.378-1.018-2.612-2.462a6.16 6.16 0 0 1 .969-4.545 3.269 3.269 0 0 1 2.2-1.4 2.179 2.179 0 0 1 2.367 1.219 5.583 5.583 0 0 1 .4 2.967c-.027.552-.545.317-.888.454M43.55 82.6c-.728-.173-1.286.39-1.231 1.257a2.252 2.252 0 0 0 .929-.114c.259-.052.609.035.7-.319.094-.313-.065-.576-.386-.821z"/>
    <path data-name="Path 3428" d="M37.931 79.982a2.643 2.643 0 0 1 .04.406c.012.937.012.945.966.856.31-.029.451.089.452.39s0 .6-.006.893c-.027.794.072 1.122-.94 1.122-.333 0-.492.186-.5.53-.019.694-.077 1.386-.089 2.08-.012.674.2.82.831.611.127-.042.236-.157.387-.094a1.932 1.932 0 0 1-2.247 2.707 1.45 1.45 0 0 1-1.187-1.444 26.783 26.783 0 0 1 .065-3.39c.031-.282.06-.529-.327-.546a.187.187 0 0 1-.114-.028c-.468-.47-.125-1.05-.2-1.575-.035-.248-.105-.622.28-.685.428-.069.417-.348.419-.653q0-.328.008-.655c0-.188.052-.424.236-.437.633-.046 1.248-.419 1.926-.088z"/>
    <path data-name="Path 3429" d="M49.299 85.774v.177c-.07 2.056.09 1.55-1.86 1.966-.442.094-.507-.216-.466-.546.153-1.246.047-2.5.155-3.748.089-1.033.079-2.064.085-3.1 0-.46.154-.709.642-.726a6.512 6.512 0 0 0 .763-.125c.519-.081.981-.073.915.8.5-.655.869-1.277 1.747-1.258 0 .862.012 1.721-.009 2.579 0 .2-.226.266-.4.312a1.882 1.882 0 0 0-1.331 1.539 7.778 7.778 0 0 0-.241 2.13z"/>
    <path data-name="Path 3430" d="M25.176 80.64c1.582.061 1.573.061 1.587 1.551.023 2.361.061 4.723.088 7.084.008.713-.074.82-.773.77-1.579-.115-1.309.121-1.424-1.4-.181-2.4.008-4.8-.209-7.2-.045-.497.038-.878.731-.805z"/>
    <path data-name="Path 3431" d="M88.826 74.653c.387.079.4.335.407.606.042 2.642.078 5.283.135 7.924.01.461-.106.621-.606.588-1.57-.1-1.553-.082-1.631-1.624-.115-2.282-.153-4.566-.175-6.85-.008-.78.094-.853.871-.754.315.041.631.07.999.11z"/>
    <path data-name="Path 3432" d="M65.384 22.034a4.407 4.407 0 0 1-1.051-1.282 6.594 6.594 0 0 1 1.476 1.657c-.132-.115-.269-.231-.425-.375z"/>
    <path data-name="Path 3433" d="M42.568 23.836a3.314 3.314 0 0 1 1.323-.747l-1.668 1.369c-.012-.376.197-.455.345-.622z"/>
    <path data-name="Path 3434" d="M29.988 33.226a4.687 4.687 0 0 1 1.027-1.359 6.807 6.807 0 0 1-.946 1.482.062.062 0 0 1-.052.008.252.252 0 0 1-.029-.131z"/>
    <path data-name="Path 3435" d="M107.087 76.746c-.4-.347-.47-.993-1.1-1.036-.24.244-.111.54-.153.8-.023.143-.05.29-.221.3a.27.27 0 0 1-.307-.288c-.011-.732-.009-1.463-.006-2.195a.375.375 0 0 1 .168-.3 1.666 1.666 0 0 1 1.961.474c.248.529-.186.783-.468 1.1.159.411.574.665.656 1.09-.163.214-.325.163-.526.045m-1.236-1.992c.014.465.332.415.63.355.2-.04.411-.142.323-.394-.111-.319-.415-.229-.66-.233-.13.008-.227.073-.297.282z"/>
</svg>
