<svg xmlns="http://www.w3.org/2000/svg" width="36" height="36" viewBox="0 0 36 36">
  <g id="job-interview" transform="translate(0)">
    <path id="Path_1139" data-name="Path 1139" d="M338.937,36.521a4.388,4.388,0,1,1-4.388-4.388A4.388,4.388,0,0,1,338.937,36.521Zm0,0" transform="translate(-306.946 -29.873)" fill="#fff"/>
    <path id="Path_1140" data-name="Path 1140" d="M20.007,12.331,17.925,9.208V3.879A3.875,3.875,0,0,0,14.046,0H3.879A3.876,3.876,0,0,0,0,3.879v6.213a3.875,3.875,0,0,0,3.879,3.879H19.13a1.056,1.056,0,0,0,.878-1.64ZM8.933,10.017H5.6a1.074,1.074,0,0,1-1.083-1,1.054,1.054,0,0,1,1.054-1.1H8.963a1.055,1.055,0,0,1,1.053,1.1A1.074,1.074,0,0,1,8.933,10.017Zm3.419-3.954H5.6a1.074,1.074,0,0,1-1.083-1A1.054,1.054,0,0,1,5.573,3.954h6.748a1.074,1.074,0,0,1,1.083,1,1.055,1.055,0,0,1-1.053,1.1Zm0,0" transform="translate(0)" fill="#fff"/>
    <path id="Path_1141" data-name="Path 1141" d="M8.19,372.151A8.277,8.277,0,0,0,0,380.459v.231a1.293,1.293,0,0,0,1.293,1.293H15.145a1.293,1.293,0,0,0,1.293-1.293v-.321a8.219,8.219,0,0,0-8.248-8.219Zm0,0" transform="translate(0 -345.984)" fill="#fff"/>
    <path id="Path_1142" data-name="Path 1142" d="M53.641,230.109a5.176,5.176,0,1,1-5.176-5.176A5.176,5.176,0,0,1,53.641,230.109Zm0,0" transform="translate(-40.246 -209.118)" fill="#fff"/>
    <path id="Path_1143" data-name="Path 1143" d="M311.21,162.859H297.9a6.7,6.7,0,0,1,13.312,0Zm0,0" transform="translate(-276.952 -145.914)" fill="#fff"/>
    <path id="Path_1144" data-name="Path 1144" d="M217.193,272a1.055,1.055,0,0,1,1.055,1.055v12.507a1.055,1.055,0,0,1-1.106,1.053,1.075,1.075,0,0,1-1-1.084v-1.175H200.379a10.373,10.373,0,0,0-4.348-5.793A7.275,7.275,0,0,0,197.51,272Zm0,0" transform="translate(-182.248 -252.875)" fill="#fff"/>
  </g>
</svg>
