<svg xmlns="http://www.w3.org/2000/svg" width="38.278" height="38.351" viewBox="0 0 38.278 38.351">
    <g data-name="Group 140">
        <g data-name="Group 139">
            <path data-name="Path 1132" d="M317.641 197.958v6.49a9.177 9.177 0 0 1-.816.037 8.993 8.993 0 0 1-1.632-.149v-8.011h2.448z" transform="translate(-302.953 -181.638)" style="fill:#fff"/>
            <path data-name="Path 1133" d="M371.9 165.4v8.362a8.985 8.985 0 0 1-2.448-1.443v-8.551h2.448z" transform="translate(-361.29 -151.532)" style="fill:#fff"/>
            <path data-name="Path 1134" d="m2.3 354.467 2.308-2.308.909-.909 7.139 7.139a2.859 2.859 0 0 1 0 4.039 2.859 2.859 0 0 1-4.039 0l-7.137-7.141.817-.817z" transform="translate(24.785 -324.91)" style="fill:#fff"/>
            <path data-name="Path 1135" d="m143.825 324.46 2.348 2.349-1.154 1.154-2.357-2.358a15.654 15.654 0 0 0 1.163-1.145z" transform="translate(-118.511 -300.137)" style="fill:#fff"/>
            <path data-name="Path 1136" d="M263.383 233.135a8.939 8.939 0 0 1-2.448 1.117v-5.372h2.448z" transform="translate(-244.615 -211.744)" style="fill:#fff"/>
            <path data-name="Path 1137" d="M155.441 1a13.872 13.872 0 1 1-13.872 13.872A13.888 13.888 0 0 1 155.441 1zm-7.125 21.724a.822.822 0 0 0 .118.105 10.6 10.6 0 0 0 4.306 2.3.8.8 0 0 0 .1.025 10.628 10.628 0 0 0 4.338.181c.024 0 .047-.007.07-.012a10.553 10.553 0 0 0 4.319-1.8.82.82 0 0 0 .128-.093 10.609 10.609 0 1 0-13.378-.712z" transform="translate(-141.569 -1)" style="fill:#fff"/>
            <path data-name="Path 1138" d="M215.654 66.109a8.971 8.971 0 0 1 6.528 15.13v-3.706a.816.816 0 0 0-.816-.816H218.1v-1.632a.816.816 0 0 0-.816-.816h-3.264v-1.632a.816.816 0 0 0-.816-.816h-4.08a.816.816 0 0 0-.816.816v7.6a8.971 8.971 0 0 1 7.344-14.131z" transform="translate(-201.782 -61.213)" style="fill:#fff"/>
        </g>
    </g>
</svg>
