<svg xmlns="http://www.w3.org/2000/svg" width="123.832" height="21.681" viewBox="0 0 123.832 21.681">
  <g id="Group_68" data-name="Group 68" transform="translate(-113.5 -5206.735)">
    <path id="Path_1164" data-name="Path 1164" d="M1.078,0V-9.8h4.2a3.777,3.777,0,0,1,1.68.35,2.68,2.68,0,0,1,1.113.98,2.714,2.714,0,0,1,.4,1.484A2.537,2.537,0,0,1,7.9-5.327a3,3,0,0,1-1.519.973L8.582,0H7.392l-2.1-4.214H2.156V0ZM2.156-5.124H5.208a2.377,2.377,0,0,0,1.589-.5,1.688,1.688,0,0,0,.595-1.358A1.673,1.673,0,0,0,6.8-8.33a2.377,2.377,0,0,0-1.589-.5H2.156ZM12.782.126a3.529,3.529,0,0,1-1.827-.483,3.61,3.61,0,0,1-1.3-1.309A3.593,3.593,0,0,1,9.17-3.514a3.653,3.653,0,0,1,.462-1.827,3.551,3.551,0,0,1,1.246-1.3,3.27,3.27,0,0,1,1.75-.483,3.046,3.046,0,0,1,1.687.483,3.483,3.483,0,0,1,1.19,1.3,3.791,3.791,0,0,1,.441,1.827v.322H10.192a2.852,2.852,0,0,0,.441,1.232,2.577,2.577,0,0,0,.931.861,2.576,2.576,0,0,0,1.26.315,3.428,3.428,0,0,0,1.064-.168,2.429,2.429,0,0,0,.868-.476l.644.686a4.508,4.508,0,0,1-1.225.651A4.3,4.3,0,0,1,12.782.126ZM10.22-4.018h4.69A2.646,2.646,0,0,0,14.5-5.145a2.476,2.476,0,0,0-.819-.784A2.094,2.094,0,0,0,12.6-6.216a2.239,2.239,0,0,0-1.106.28,2.429,2.429,0,0,0-.84.777A2.745,2.745,0,0,0,10.22-4.018ZM19.4,0,16.366-7.014h1.148l2.394,5.67L22.3-7.014h1.106L20.384,0ZM24.36,0V-7.014H25.4V0Zm.518-8.358a.672.672,0,0,1-.49-.21.687.687,0,0,1-.21-.5.649.649,0,0,1,.21-.483.683.683,0,0,1,.49-.2.676.676,0,0,1,.5.2.676.676,0,0,1,.2.5.683.683,0,0,1-.2.49A.665.665,0,0,1,24.878-8.358ZM30.45.126a3.529,3.529,0,0,1-1.827-.483,3.61,3.61,0,0,1-1.3-1.309,3.593,3.593,0,0,1-.483-1.848A3.653,3.653,0,0,1,27.3-5.341a3.551,3.551,0,0,1,1.246-1.3,3.27,3.27,0,0,1,1.75-.483,3.046,3.046,0,0,1,1.687.483,3.483,3.483,0,0,1,1.19,1.3,3.791,3.791,0,0,1,.441,1.827v.322H27.86A2.852,2.852,0,0,0,28.3-1.96a2.577,2.577,0,0,0,.931.861,2.576,2.576,0,0,0,1.26.315,3.428,3.428,0,0,0,1.064-.168,2.429,2.429,0,0,0,.868-.476l.644.686a4.508,4.508,0,0,1-1.225.651A4.3,4.3,0,0,1,30.45.126ZM27.888-4.018h4.69a2.646,2.646,0,0,0-.413-1.127,2.476,2.476,0,0,0-.819-.784,2.094,2.094,0,0,0-1.078-.287,2.239,2.239,0,0,0-1.106.28,2.429,2.429,0,0,0-.84.777A2.745,2.745,0,0,0,27.888-4.018ZM36.2,0,34.23-7.014h1.022l1.512,5.6,1.75-5.6h.924l1.736,5.6,1.526-5.6h.98L41.692,0H40.7L38.962-5.614,37.212,0ZM50.96,0,46.942-9.8H48.1l3.542,8.792,3.6-8.792h1.092L52.262,0Zm8.694.126a3.529,3.529,0,0,1-1.827-.483,3.61,3.61,0,0,1-1.3-1.309,3.593,3.593,0,0,1-.483-1.848A3.653,3.653,0,0,1,56.5-5.341a3.551,3.551,0,0,1,1.246-1.3,3.27,3.27,0,0,1,1.75-.483,3.046,3.046,0,0,1,1.687.483,3.483,3.483,0,0,1,1.19,1.3,3.791,3.791,0,0,1,.441,1.827v.322H57.064A2.852,2.852,0,0,0,57.5-1.96a2.577,2.577,0,0,0,.931.861,2.576,2.576,0,0,0,1.26.315A3.428,3.428,0,0,0,60.76-.952a2.429,2.429,0,0,0,.868-.476l.644.686a4.508,4.508,0,0,1-1.225.651A4.3,4.3,0,0,1,59.654.126ZM57.092-4.018h4.69a2.646,2.646,0,0,0-.413-1.127,2.476,2.476,0,0,0-.819-.784,2.094,2.094,0,0,0-1.078-.287,2.239,2.239,0,0,0-1.106.28,2.429,2.429,0,0,0-.84.777A2.745,2.745,0,0,0,57.092-4.018ZM64.26,0V-7.014H65.3v.994a2.38,2.38,0,0,1,.819-.847,2.159,2.159,0,0,1,1.141-.3,2.073,2.073,0,0,1,.658.1v.952a1.757,1.757,0,0,0-.364-.1,2.39,2.39,0,0,0-.364-.028,1.8,1.8,0,0,0-1.127.371A2.464,2.464,0,0,0,65.3-4.8V0ZM69.1,0V-7.014H70.14V0Zm.518-8.358a.672.672,0,0,1-.49-.21.687.687,0,0,1-.21-.5.649.649,0,0,1,.21-.483.683.683,0,0,1,.49-.2.676.676,0,0,1,.5.2.676.676,0,0,1,.2.5.683.683,0,0,1-.2.49A.665.665,0,0,1,69.622-8.358ZM72.912,0V-6.132H71.26v-.882h1.652v-1.33a2.111,2.111,0,0,1,.56-1.582,2.213,2.213,0,0,1,1.61-.546,4.094,4.094,0,0,1,.5.028,2.252,2.252,0,0,1,.434.1v.924a4.12,4.12,0,0,0-.434-.1,2.477,2.477,0,0,0-.434-.035,1.248,1.248,0,0,0-.917.3,1.291,1.291,0,0,0-.3.945v1.3H76.02v.882H73.934V0ZM77.14,0V-7.014h1.036V0Zm.518-8.358a.672.672,0,0,1-.49-.21.687.687,0,0,1-.21-.5.649.649,0,0,1,.21-.483.683.683,0,0,1,.49-.2.676.676,0,0,1,.5.2.676.676,0,0,1,.2.5.683.683,0,0,1-.2.49A.665.665,0,0,1,77.658-8.358ZM83.23.126A3.529,3.529,0,0,1,81.4-.357a3.61,3.61,0,0,1-1.3-1.309,3.593,3.593,0,0,1-.483-1.848,3.653,3.653,0,0,1,.462-1.827,3.551,3.551,0,0,1,1.246-1.3,3.27,3.27,0,0,1,1.75-.483,3.046,3.046,0,0,1,1.687.483,3.483,3.483,0,0,1,1.19,1.3,3.791,3.791,0,0,1,.441,1.827v.322H80.64a2.852,2.852,0,0,0,.441,1.232,2.577,2.577,0,0,0,.931.861,2.576,2.576,0,0,0,1.26.315,3.428,3.428,0,0,0,1.064-.168,2.429,2.429,0,0,0,.868-.476l.644.686a4.508,4.508,0,0,1-1.225.651A4.3,4.3,0,0,1,83.23.126ZM80.668-4.018h4.69a2.646,2.646,0,0,0-.413-1.127,2.476,2.476,0,0,0-.819-.784,2.094,2.094,0,0,0-1.078-.287,2.239,2.239,0,0,0-1.106.28,2.429,2.429,0,0,0-.84.777A2.745,2.745,0,0,0,80.668-4.018ZM91.042.112a3.4,3.4,0,0,1-1.785-.483,3.551,3.551,0,0,1-1.274-1.3,3.638,3.638,0,0,1-.469-1.841,3.6,3.6,0,0,1,.469-1.834,3.568,3.568,0,0,1,1.274-1.3,3.429,3.429,0,0,1,1.8-.483,3.543,3.543,0,0,1,1.19.2,3.45,3.45,0,0,1,1.05.6V-9.8l1.036-.238V0H93.31V-.742A3.218,3.218,0,0,1,91.042.112Zm.1-.91a2.913,2.913,0,0,0,1.225-.259,2.469,2.469,0,0,0,.931-.721V-5.25a2.533,2.533,0,0,0-.931-.707,2.913,2.913,0,0,0-1.225-.259,2.561,2.561,0,0,0-1.323.35,2.536,2.536,0,0,0-.938.959,2.761,2.761,0,0,0-.343,1.379,2.8,2.8,0,0,0,.343,1.386,2.627,2.627,0,0,0,.938.98A2.485,2.485,0,0,0,91.14-.8Z" transform="translate(143 5222.576)" fill="#fff"/>
    <path id="Icon_material-verified-user" data-name="Icon material-verified-user" d="M13.37,1.5,4.5,5.442v5.913c0,5.47,3.784,10.584,8.87,11.826,5.085-1.242,8.87-6.357,8.87-11.826V5.442ZM11.4,17.268,7.457,13.326l1.39-1.39L11.4,14.479l6.494-6.494,1.39,1.4Z" transform="translate(109 5205.235)" fill="#1f97f8"/>
  </g>
</svg>
