<?xml version="1.0" encoding="UTF-8"?>
<svg version="1.1" xmlns="http://www.w3.org/2000/svg" width="121" height="22">
<path d="M0 0 C39.93 0 79.86 0 121 0 C121 7.26 121 14.52 121 22 C81.07 22 41.14 22 0 22 C0 14.74 0 7.48 0 0 Z " fill="#303131" transform="translate(0,0)"/>
<path d="M0 0 C2 2 2 2 2.375 5.75 C2.25540512 10.1271725 0.96979819 12.70914254 -2 16 C-4.4375 17.1875 -4.4375 17.1875 -7 17 C-9.56411708 14.84381063 -11.49549813 13.00900373 -13 10 C-13.06950541 8.45976004 -13.08452357 6.91665012 -13.0625 5.375 C-13.05347656 4.55773437 -13.04445313 3.74046875 -13.03515625 2.8984375 C-13.02355469 2.27195312 -13.01195312 1.64546875 -13 1 C-8.25502375 -0.96742918 -5.01023306 -1.15620763 0 0 Z " fill="#2187D9" transform="translate(20,2)"/>
<path d="M0 0 C0.99 0.33 1.98 0.66 3 1 C2.34 1 1.68 1 1 1 C1 1.66 1 2.32 1 3 C2.916588 3.02712153 4.8332873 3.04645097 6.75 3.0625 C7.81734375 3.07410156 8.8846875 3.08570313 9.984375 3.09765625 C12.53368501 3.01510087 14.57933591 2.74617558 17 2 C17 1.34 17 0.68 17 0 C17.66 0 18.32 0 19 0 C19 2.97 19 5.94 19 9 C13.72 9 8.44 9 3 9 C3 7.35 3 5.7 3 4 C2.34 4 1.68 4 1 4 C1 5.65 1 7.3 1 9 C-0.33333333 9 -1.66666667 9 -3 9 C-3.36923077 3.46153846 -3.36923077 3.46153846 -1.5 1.125 C-1.005 0.75375 -0.51 0.3825 0 0 Z " fill="#838383" transform="translate(94,5)"/>
<path d="M0 0 C2.375 -0.125 2.375 -0.125 5 0 C5.66 0.66 6.32 1.32 7 2 C9.65537372 2.56520003 12.29144713 2.73788198 15 3 C15 3.99 15 4.98 15 6 C15.66 6 16.32 6 17 6 C17.66 4.02 18.32 2.04 19 0 C19.66 0 20.32 0 21 0 C21 2.97 21 5.94 21 9 C20.34 9 19.68 9 19 9 C18.67 8.34 18.34 7.68 18 7 C17.67 7.66 17.34 8.32 17 9 C16.34 9 15.68 9 15 9 C14.34 8.34 13.68 7.68 13 7 C12.67 7.66 12.34 8.32 12 9 C7.125 8.125 7.125 8.125 6 7 C5.67 7.66 5.34 8.32 5 9 C3.68 7.68 2.36 6.36 1 5 C0.67 6.32 0.34 7.64 0 9 C0 6.03 0 3.06 0 0 Z " fill="#A9A9A9" transform="translate(33,5)"/>
<path d="M0 0 C0.99 0.99 1.98 1.98 3 3 C3 3.99 3 4.98 3 6 C3.66 6 4.32 6 5 6 C5.33 4.35 5.66 2.7 6 1 C6.66 1 7.32 1 8 1 C8 1.66 8 2.32 8 3 C11.5219721 3.08004482 14.61981469 3.04005702 18 2 C18 2.66 18 3.32 18 4 C17.34 4 16.68 4 16 4 C16 5.65 16 7.3 16 9 C9.375 9.25 9.375 9.25 6 7 C5.67 7.66 5.34 8.32 5 9 C4.34 9 3.68 9 3 9 C2.01 6.03 1.02 3.06 0 0 Z " fill="#9A9A9A" transform="translate(72,5)"/>
<path d="M0 0 C1.52519276 0.08937803 3.04681929 0.24537146 4.5625 0.4375 C5.80193359 0.59025391 5.80193359 0.59025391 7.06640625 0.74609375 C7.70449219 0.82988281 8.34257813 0.91367188 9 1 C9 1.66 9 2.32 9 3 C9.66 3 10.32 3 11 3 C11.33 2.34 11.66 1.68 12 1 C11.67 2.98 11.34 4.96 11 7 C7 7 7 7 4 5 C3.67 5.66 3.34 6.32 3 7 C1.35 6.67 -0.3 6.34 -2 6 C-1.125 1.125 -1.125 1.125 0 0 Z " fill="#A1A1A1" transform="translate(57,7)"/>
<path d="M0 0 C0.66 0 1.32 0 2 0 C2 2.97 2 5.94 2 9 C0.02 9 -1.96 9 -4 9 C-4 7.02 -4 5.04 -4 3 C-2.68 2.67 -1.36 2.34 0 2 C0 1.34 0 0.68 0 0 Z " fill="#848484" transform="translate(111,5)"/>
<path d="M0 0 C1.65 0 3.3 0 5 0 C5.84454356 3.37817425 6.10844919 5.67465243 5 9 C3.68 7.68 2.36 6.36 1 5 C0.67 6.32 0.34 7.64 0 9 C0 6.03 0 3.06 0 0 Z " fill="#A1A1A1" transform="translate(33,5)"/>
<path d="M0 0 C2.475 0.99 2.475 0.99 5 2 C5 2.66 5 3.32 5 4 C5.66 4.33 6.32 4.66 7 5 C6.67 5.66 6.34 6.32 6 7 C4.35 6.67 2.7 6.34 1 6 C0.67 4.02 0.34 2.04 0 0 Z " fill="#838383" transform="translate(39,7)"/>
<path d="M0 0 C0.99 0.33 1.98 0.66 3 1 C2.34 1 1.68 1 1 1 C1 3.64 1 6.28 1 9 C-0.33333333 9 -1.66666667 9 -3 9 C-3.36923077 3.46153846 -3.36923077 3.46153846 -1.5 1.125 C-1.005 0.75375 -0.51 0.3825 0 0 Z " fill="#AEAEAE" transform="translate(94,5)"/>
<path d="M0 0 C0 0.66 0 1.32 0 2 C-0.66 2 -1.32 2 -2 2 C-2 3.65 -2 5.3 -2 7 C-4.97 6.505 -4.97 6.505 -8 6 C-8 5.34 -8 4.68 -8 4 C-2 0 -2 0 0 0 Z " fill="#808080" transform="translate(90,7)"/>
<path d="M0 0 C2.86724686 0.57344937 3.8614515 0.8614515 6 3 C5.67 3.66 5.34 4.32 5 5 C3.35 4.67 1.7 4.34 0 4 C0 2.68 0 1.36 0 0 Z " fill="#8A8A8A" transform="translate(55,9)"/>
<path d="M0 0 C0.66 0 1.32 0 2 0 C2 2.97 2 5.94 2 9 C1.34 9 0.68 9 0 9 C-1.125 2.25 -1.125 2.25 0 0 Z " fill="#7A7A7A" transform="translate(52,5)"/>
</svg>
