<svg xmlns="http://www.w3.org/2000/svg" width="61.004" height="28.617" viewBox="0 0 61.004 28.617">
  <g id="Group_42" data-name="Group 42" transform="translate(-794.535 -4960)">
    <path id="Icon_ionic-md-star" data-name="Icon ionic-md-star" d="M12.012,17.054l5.077,3.063-1.343-5.778,4.481-3.885L14.32,9.947,12.012,4.5,9.7,9.947,3.8,10.454l4.482,3.885L6.935,20.117Z" transform="translate(790.738 4968.5)" fill="#fff"/>
    <path id="Icon_ionic-md-star-2" data-name="Icon ionic-md-star" d="M18.848,27.5l9.3,5.612-2.46-10.585,8.21-7.118-10.824-.93L18.848,4.5,14.62,14.479,3.8,15.409l8.21,7.118L9.546,33.112Z" transform="translate(807.168 4955.5)" fill="#fff"/>
    <path id="Icon_ionic-md-star-3" data-name="Icon ionic-md-star" d="M12.012,17.054l5.077,3.063-1.343-5.778,4.481-3.885L14.32,9.947,12.012,4.5,9.7,9.947,3.8,10.454l4.482,3.885L6.935,20.117Z" transform="translate(835.311 4968.5)" fill="#fff"/>
  </g>
</svg>
